<ttFont>
          <CharString index="0">
            145 243 rmoveto
            111 68 75 84 42 42 -16 -41 44 vhcurveto
            -242 vlineto
            -48 -43 -46 -25 -48 hhcurveto
            -90 -53 70 116 hvcurveto
            -85 -1 rmoveto
            -162 85 -92 125 61 59 35 41 39 vhcurveto
            3 hlineto
            return
          </CharString>
          <CharString index="1">
            300 -12 rmoveto
            148 104 132 211 209 -104 128 -148 -148 -104 -127 -210 -211 104 -132 148 hvcurveto
            73 vmoveto
            -100 -66 106 164 163 66 101 100 100 66 -101 -163 -164 -66 -106 -100 hvcurveto
            return
          </CharString>
          <CharString index="2">
            -337 hlineto
            -63 -54 -41 -27 -56 hhcurveto
            -81 -31 44 92 hvcurveto
            291 -83 -302 vlineto
            -128 53 -68 116 75 57 40 57 49 vhcurveto
            4 hlineto
            return
          </CharString>
          <CharString index="3">
            -251 -20 -101 -53 -109 vvcurveto
            80 6 rmoveto
            64 64 41 208 17 vhcurveto
            -128 vlineto
            -46 -55 -55 -26 -55 hhcurveto
            -56 -51 23 55 hvcurveto
            return
          </CharString>
          <CharString index="4">
            -7 -54 rlineto
            -3 hlineto
            41 -43 -49 25 -57 hhcurveto
            -118 -104 -96 -152 -153 85 -92 125 60 60 32 39 38 hvcurveto
            -1 -98 rlineto
            -78 -2 -52 -51 -93 hhcurveto
            -49 -56 13 32 -50 hvcurveto
            163 179 rmoveto
            -89 -55 69 109 104 70 74 82 43 42 -16 -41 44 hvcurveto
            -226 vlineto
            -48 -44 -46 -25 -47 hhcurveto
            return
          </CharString>
          <CharString index="5">
            53 328 rmoveto
            -214 119 -126 165 85 69 34 42 42 vhcurveto
            276 -208 -69 131 -171 vlineto
            -24 -25 -43 -15 -46 hhcurveto
            -129 -73 104 165 163 81 102 123 63 39 -26 -34 32 hvcurveto
            47 53 rlineto
            39 -37 -57 41 -87 hhcurveto
            -170 -121 -128 -212 hvcurveto
            return
          </CharString>
          <CharString index="6">
            72 64 rmoveto
            -41 59 84 -35 95 hhcurveto
            139 77 66 79 74 -63 38 -131 33 hvcurveto
            -88 22 -60 24 40 vvcurveto
            38 29 32 91 60 52 -21 -30 43 vhcurveto
            40 53 rlineto
            33 -48 -74 29 -73 hhcurveto
            -134 -70 -60 -78 -69 85 -44 100 -25 hvcurveto
            119 -29 39 -27 -38 vvcurveto
            -42 -43 -34 -87 -87 -60 26 40 -54 vhcurveto
            return
          </CharString>
          <CharString index="7">
            93 hmoveto
            82 339 hlineto
            59 57 39 29 58 hhcurveto
            80 32 -44 -92 hvcurveto
            -291 82 302 vlineto
            128 -53 68 -115 -76 -56 -41 -54 return
          </CharString>
          <CharString index="8">
            vstem
            111 hmoveto
            90 hlineto
            72 275 10 39 8 40 8 39 rlinecurve
            3 hlineto
            7 -39 8 -40 9 -39 75 -275 rcurveline
            92 hlineto
            97 657 rlineto
            -79 hlineto
            -50 -412 -4 -54 -6 -54 -4 -54 rlinecurve
            -4 hlineto
            -14 54 -15 55 -12 53 -69 242 rcurveline
            -59 hlineto
            -69 -242 -13 -54 -15 -54 -14 -54 rlinecurve
            -3 hlineto
            -4 54 -7 53 -3 55 -53 412 rcurveline
            -83 hlineto
            return
          </CharString>
          <CharString index="9">
            81 126 rmoveto
            -87 74 -51 91 69 69 36 42 54 vhcurveto
            3 hlineto
            return
          </CharString>
          <CharString index="10">
            206 189 rmoveto
            -120 46 -81 141 53 56 13 16 44 vhcurveto
            -18 60 rlineto
            -13 -34 -37 -9 -46 hhcurveto
            -94 -29 46 87 hvcurveto
            231 239 67 -239 136 -68 vlineto
            -11 -136 -140 -5 rlineto
            -62 137 vlineto
            return
          </CharString>
          <CharString index="11">
            141 callgsubr
            -13 -15 vvcurveto
            -46 -35 -14 -53 -7 vhcurveto
            -35 -410 hlineto
            -136 -60 -49 -79 -79 -59 49 136 vhcurveto
            410 -84 -408 vlineto
            -188 93 -72 129 128 92 72 188 vhcurveto
            372 vlineto
            58 13 51 29 66 vvcurveto
            25 -9 22 -14 18 vhcurveto
            endchar
          </CharString>
          <CharString index="12">
            80 180 callgsubr
            114 -93 152 72 68 28 48 53 vhcurveto
            -36 53 rlineto
            -34 -41 -50 -27 -60 hhcurveto
            -112 -75 152 callsubr
            77 76 112 51 42 -21 -35 40 hvcurveto
            41 53 rlineto
            39 -40 -58 32 -79 hhcurveto
            -147 -124 -93 -163 hvcurveto
            return
          </CharString>
          <CharString index="13">
            81 645 rmoveto
            166 -482 hlineto
            -115 56 -60 103 53 34 13 16 44 vhcurveto
            -21 62 rlineto
            -16 -36 -28 -7 -28 hhcurveto
            -58 -37 30 71 hvcurveto
            555 -248 vlineto
            return
          </CharString>
          <CharString index="14">
            -37 -29 -25 -39 -38 29 -25 37 return
          </CharString>
          <CharString index="15">
            rmoveto
            23 17 22 30 14 vhcurveto
            45 -13 42 -11 -37 vvcurveto
            -26 -33 -19 -34 -37 -30 20 27 vhcurveto
            hintmask 11011000
            87 97 rmoveto
            -41 12 -34 14 29 vvcurveto
            23 22 17 33 36 20 -18 -24 -20 -10 -17 -26 -16 vhcurveto
            hintmask 11100100
            -145 -101 rmoveto
            -47 50 -41 75 71 54 39 49 44 -28 22 -35 15 vhcurveto
            4 vlineto
            hintmask 11011000
            26 14 27 21 37 vvcurveto
            49 -49 35 -66 -62 -52 -35 -49 -36 24 -18 30 -18 vhcurveto
            -4 vlineto
            hintmask 11100100
            -34 -16 -31 -23 -42 vvcurveto
            endchar
          </CharString>
          <CharString index="16">
            25 -37 -38 -28 -25 -39 -38 28 -25 38 hvcurveto
            return
          </CharString>
          <CharString index="17">
            222 156 return
          </CharString>
          <CharString index="18">
            rmoveto
            26 19 19 27 26 -19 19 -26 -26 -20 -19 -26 -27 20 -19 26 hvcurveto
            172 hmoveto
            26 20 19 27 26 196 callgsubr
            -19 -19 -26 -27 19 -19 26 hvcurveto
            return
          </CharString>
          <CharString index="19">
            76 6 81 hintmask 1011101100010000
            -20 callsubr
            hintmask 1101101010001000
            -73 callgsubr
            hintmask 1011101100010000
            -55 callsubr
            hintmask 1101101001001000
            -91 callgsubr
            hintmask 1101101010010000
            -66 callgsubr
            hintmask 1101011010010000
            -73 callsubr
            hintmask 1011101001010000
            -55 callgsubr
            hintmask 1011101100010000
            57 callgsubr
            hintmask 1101011010010000
            -83 callsubr
            return
          </CharString>
          <CharString index="20">
            89 23 58 61 102 vvcurveto
            136 -96 48 -133 vhcurveto
            -204 -656 83 277 117 hlineto
            158 -277 rlineto
            return
          </CharString>
          <CharString index="21">
            26 callsubr
            67 hlineto
            -96 112 rlineto
            -80 hlineto
            -96 -19 callsubr
            return
          </CharString>
          <CharString index="22">
            125 -106 rmoveto
            -30 -59 rlineto
            -34 53 69 -18 63 hhcurveto
            144 83 76 122 hvcurveto
            return
          </CharString>
          <CharString index="23">
            58 10 53 25 58 vvcurveto
            51 -51 27 -87 3 vhcurveto
            -9 -48 rlineto
            return
          </CharString>
          <CharString index="24">
            219 298 rmoveto
            -61 -51 45 70 68 51 46 61 62 50 -46 -68 -70 -50 -45 -62 hvcurveto
            return
          </CharString>
          <CharString index="25">
            -94 callgsubr
            -44 callsubr
            hintmask 0100001100000000
            -34 callgsubr
            hintmask 1000010010000000
            -15 callsubr
            hintmask 0100001100000000
            25 14 28 21 37 vvcurveto
            49 -49 35 -66 -62 -52 -35 -49 -36 24 -18 30 -18 vhcurveto
            -4 vlineto
            hintmask 1000010010000000
            -34 -16 -32 -23 -42 vvcurveto
            endchar
          </CharString>
          <CharString index="26">
            -115 -106 -98 -158 hvcurveto
            85 1 rmoveto
            111 68 75 84 42 42 -16 -41 44 vhcurveto
            -242 vlineto
            -48 -43 -46 -25 -48 hhcurveto
            -90 -53 70 116 hvcurveto
            return
          </CharString>
          <CharString index="27">
            rmoveto
            33 22 22 36 35 33 -23 -51 7 vhcurveto
            -24 -25 -23 -9 -26 hhcurveto
            -41 -18 21 31 hvcurveto
            -53 -192 rmoveto
            -19 25 29 -14 39 hhcurveto
            91 63 63 114 94 -59 58 -78 -67 -48 -46 -58 -56 34 -39 68 35 30 13 21 25 hvcurveto
            -75 -5 -35 -39 -56 hhcurveto
            -27 -20 9 14 -18 hvcurveto
            endchar
          </CharString>
          <CharString index="28">
            62 rlineto
            -82 callgsubr
            return
          </CharString>
          <CharString index="29">
            -12 61 540 61 hstemhm
            68 75 -35 75 249 71 -51 79 hintmask 11100100
            143 171 rmoveto
            64 47 41 62 34 vhcurveto
            112 -38 88 -22 -89 vvcurveto
            -66 -53 -46 -95 -98 -63 51 71 vhcurveto
            hintmask 11011000
            209 177 rmoveto
            -95 30 -74 32 76 vvcurveto
            62 49 41 71 84 45 -50 -63 -47 -28 -43 -52 -38 vhcurveto
            hintmask 11100100
            -284 -185 rmoveto
            -101 90 -74 144 146 83 75 95 91 -55 40 -70 35 vhcurveto
            4 vlineto
            hintmask 11011000
            53 37 44 55 60 vvcurveto
            99 -73 71 -125 -114 -83 -66 -98 -67 44 -49 53 -33 vhcurveto
            -4 vlineto
            hintmask 11100100
            -68 -32 -69 -50 -88 vvcurveto
            endchar
          </CharString>
          <CharString index="30">
            85 hmoveto
            164 hlineto
            194 106 122 209 208 -106 117 -198 hvcurveto
            -160 hlineto
            83 -588 rmoveto
            520 72 vlineto
            149 74 -92 -165 -166 -74 -97 -149 hvcurveto
            return
          </CharString>
          <CharString index="31">
            -50 callgsubr
            80 hlineto
            96 112 rlineto
            endchar
          </CharString>
          <CharString index="32">
            37 29 25 38 39 -29 25 -37 return
          </CharString>
          <CharString index="33">
            rmoveto
            63 hlineto
            63 -79 callsubr
            return
          </CharString>
          <CharString index="34">
            8 -21 -23 4 -28 hhcurveto
            -103 -88 -68 -106 -58 27 -43 33 -25 hvcurveto
            -4 vlineto
            return
          </CharString>
          <CharString index="35">
            -68 107 callsubr
            68 rlineto
            -67 hlineto
            96 -19 callsubr
            return
          </CharString>
          <CharString index="36">
            185 callsubr
            hstemhm
            8 584 hintmask 10111000
            40 callsubr
            hintmask 11111000
            -48 callgsubr
            hintmask 10111000
            -61 callsubr
            hintmask 11111000
            -61 callgsubr
            hintmask 10111000
            -59 281 rlineto
            -84 hlineto
            return
          </CharString>
          <CharString index="37">
            rmoveto
            37 29 25 38 39 -29 -68 callgsubr
          </CharString>
          <CharString index="38">
            146 hmoveto
            82 285 hlineto
            101 58 69 38 73 hhcurveto
            38 18 -5 -12 34 hvcurveto
            return
          </CharString>
          <CharString index="39">
            rmoveto
            -93 -62 152 callsubr
            62 76 93 93 62 -76 -112 -111 -62 -75 -93 hvcurveto
            return
          </CharString>
          <CharString index="40">
            -224 57 159 68 -39 -21 154 55 214 63 -48 60 return
          </CharString>
          <CharString index="41">
            rmoveto
            -94 hlineto
            -88 -19 callsubr
            69 hlineto
            return
          </CharString>
          <CharString index="42">
            71 -38 -21 486 -20 return
          </CharString>
          <CharString index="43">
            -12 -65 callsubr
            return
          </CharString>
          <CharString index="44">
            252 50 237 51 hstem
            167 63 148 64 vstem
            167 345 rmoveto
            -57 46 -36 57 42 39 20 25 32 vhcurveto
            2 hlineto
            5 -37 rlineto
            52 195 hlineto
            84 -40 51 -84 -53 -51 -22 -20 -34 vhcurveto
            25 -43 rlineto
            17 29 36 17 38 hhcurveto
            52 17 -34 -40 1 hvcurveto
            -144 -15 -67 -35 -70 vvcurveto
            63 4 rmoveto
            38 40 25 108 12 vhcurveto
            -82 vlineto
            -25 -30 -29 -15 -30 hhcurveto
            -33 -26 15 32 hvcurveto
            endchar
          </CharString>
          <CharString index="45">
            71 hmoveto
            461 67 -344 hlineto
            334 375 rlineto
            44 -414 -67 296 vlineto
            -333 -375 rlineto
            return
          </CharString>
          <CharString index="46">
            106 486 rlineto
            -78 hlineto
            -59 -281 -8 -46 -7 -44 -9 -45 rlinecurve
            -4 hlineto
            -10 45 -9 44 -11 46 rrcurveto
            return
          </CharString>
          <CharString index="47">
            rmoveto
            -34 33 48 -20 46 hhcurveto
            68 53 34 59 41 -28 26 -43 10 hvcurveto
            return
          </CharString>
          <CharString index="48">
            66 169 59 151 65 return
          </CharString>
          <CharString index="49">
            rmoveto
            56 hlineto
            58 73 rlineto
            4 hlineto
            58 -73 rlineto
            56 hlineto
            -82 119 rlineto
            -68 hlineto
            return
          </CharString>
          <CharString index="50">
            71 238 71 206 70 return
          </CharString>
          <CharString index="51">
            rmoveto
            109 hlineto
            102 56 -31 -86 -85 -56 -42 -102 hvcurveto
            -109 hlineto
            return
          </CharString>
          <CharString index="52">
            -104 -55 35 51 hvcurveto
            -71 -8 rmoveto
            -86 82 -49 142 vhcurveto
            return
          </CharString>
          <CharString index="53">
            32 22 24 31 31 -22 24 -32 return
          </CharString>
          <CharString index="54">
            28 25 38 39 -28 25 return
          </CharString>
          <CharString index="55">
            -12 -28 callsubr
            return
          </CharString>
          <CharString index="56">
            82 hintmask 11011101
            60 -2 callgsubr
            hintmask 10111101
            -12 callgsubr
            hintmask 11011101
            -81 callsubr
            return
          </CharString>
          <CharString index="57">
            -32 -22 -24 -31 -31 22 -24 32 hvcurveto
            return
          </CharString>
          <CharString index="58">
            90 419 rmoveto
            226 -437 hlineto
            -83 -26 -49 -97 -37 -39 10 17 -35 vhcurveto
            -27 -61 rlineto
            -19 39 49 -14 51 hhcurveto
            157 47 85 120 hvcurveto
            498 -308 vlineto
            return
          </CharString>
          <CharString index="59">
            261 78 return
          </CharString>
          <CharString index="60">
            32 22 24 170 callsubr
            -24 32 hvcurveto
            return
          </CharString>
          <CharString index="61">
            21 -17 callsubr
            hintmask 10111100
            -24 -105 callsubr
            hintmask 01111100
            7 -85 rlineto
            67 454 hlineto
            hintmask 10111110
            -21 callgsubr
          </CharString>
          <CharString index="62">
            rmoveto
            81 58 62 105 103 -58 59 -81 -81 -58 -59 -103 -105 58 -62 81 hvcurveto
            50 vmoveto
            -43 -35 38 79 79 35 34 43 43 35 -34 -79 -79 -35 -38 -43 hvcurveto
            endchar
          </CharString>
          <CharString index="63">
            -204 -499 rmoveto
            23 16 22 31 14 vhcurveto
            45 -13 42 -11 -37 vvcurveto
            -26 -33 -19 -34 -37 -30 20 27 vhcurveto
            return
          </CharString>
          <CharString index="64">
            15 -30 -30 5 -36 hhcurveto
            -90 -76 -49 -78 -51 hvcurveto
            -3 hlineto
            return
          </CharString>
          <CharString index="65">
            -217 66 156 68 356 69 -12 -20 return
          </CharString>
          <CharString index="66">
            rmoveto
            86 36 68 59 4 hvcurveto
            -43 hlineto
            -41 -6 -26 -39 -51 hhcurveto
            -51 return
          </CharString>
          <CharString index="67">
            -60 callsubr
            hintmask 11110000
            60 callgsubr
            return
          </CharString>
          <CharString index="68">
            hstemhm
            -80 callgsubr
            return
          </CharString>
          <CharString index="69">
            350 rmoveto
            89 46 54 82 100 vvcurveto
            76 -37 45 -53 -43 -31 -32 -46 -42 29 -29 42 9 9 2 4 8 vhcurveto
            -4 -70 -37 -53 -63 -35 rrcurveto
            return
          </CharString>
          <CharString index="70">
            -33 -5 -16 -19 -19 -37 -29 52 -53 hhcurveto
            return
          </CharString>
          <CharString index="71">
            78 -67 callgsubr
            return
          </CharString>
          <CharString index="72">
            -56 40 -29 50 25 35 12 15 19 vhcurveto
            -22 41 rlineto
            -8 -11 -13 -5 -16 hhcurveto
            -24 -22 15 31 return
          </CharString>
          <CharString index="73">
            -7 vhcurveto
            8 -41 rlineto
            76 7 69 27 58 vvcurveto
            return
          </CharString>
          <CharString index="74">
            71 vstem
            81 hmoveto
            70 369 hlineto
            54 -7 95 -4 53 vhcurveto
            3 hlineto
            44 -140 90 -253 rlineto
            45 hlineto
            90 253 43 140 rlineto
            3 hlineto
            -4 -53 -6 -95 -54 vvcurveto
            -369 71 656 -92 vlineto
            -92 -279 -32 -106 rlineto
            -4 hlineto
            -33 106 -93 279 rlineto
            -92 hlineto
            return
          </CharString>
          <CharString index="75">
            rmoveto
            -100 39 -70 66 -65 vhcurveto
            46 32 rlineto
            -60 60 -25 65 78 vvcurveto
            78 25 65 60 60 vhcurveto
            -46 33 rlineto
            -66 -66 -39 -70 -100 vvcurveto
            endchar
          </CharString>
          <CharString index="76">
            272 698 rmoveto
            -97 callgsubr
            return
          </CharString>
          <CharString index="77">
            49 callgsubr
            -32 11 vhcurveto
            return
          </CharString>
          <CharString index="78">
            54 callgsubr
            99 callgsubr
            return
          </CharString>
          <CharString index="79">
            66 -33 -21 430 68 return
          </CharString>
          <CharString index="80">
            579 165 callsubr
            158 47 190 47 hintmask 01110000
            158 579 rmoveto
            -37 callgsubr
            -47 hlineto
            hintmask 10110000
            29 callsubr
            hintmask 01110000
            82 callsubr
            endchar
          </CharString>
          <CharString index="81">
            -300 hlineto
            endchar
          </CharString>
          <CharString index="82">
            -39 261 rmoveto
            return
          </CharString>
          <CharString index="83">
            26 callsubr
            66 hlineto
            -96 112 rlineto
            -79 hlineto
            -96 -19 callsubr
            return
          </CharString>
          <CharString index="84">
            47 hlineto
            37 6 13 18 21 116 callgsubr
            53 28 47 62 return
          </CharString>
          <CharString index="85">
            60 14 42 33 59 vvcurveto
            25 -9 22 -14 18 vhcurveto
            endchar
          </CharString>
          <CharString index="86">
            hstem
            0 600 60 callsubr
            return
          </CharString>
          <CharString index="87">
            143 -81 rmoveto
            28 16 28 46 25 vhcurveto
            return
          </CharString>
          <CharString index="88">
            -112 rlineto
            return
          </CharString>
          <CharString index="89">
            rmoveto
            58 10 53 25 58 vvcurveto
            51 -51 27 -88 3 vhcurveto
            -8 41 callsubr
            -25 -12 -32 -9 vhcurveto
            endchar
          </CharString>
          <CharString index="90">
            rmoveto
            8 -13 6 -14 -15 vvcurveto
            -45 -37 -16 -46 -5 vhcurveto
            return
          </CharString>
          <CharString index="91">
            rmoveto
            85 36 68 59 5 hvcurveto
            -44 hlineto
            -41 -6 -25 -39 -51 hhcurveto
            -52 150 callgsubr
            5 36 -68 86 hhcurveto
            return
          </CharString>
          <CharString index="92">
            -146 -101 rmoveto
            -47 51 -41 75 71 54 39 49 44 -28 22 -35 15 vhcurveto
            4 vlineto
            return
          </CharString>
          <CharString index="93">
            -5 callsubr
            68 return
          </CharString>
          <CharString index="94">
            258 hmoveto
            84 586 216 70 -516 -70 216 hlineto
            return
          </CharString>
          <CharString index="95">
            -99 -77 callgsubr
            return
          </CharString>
          <CharString index="96">
            -206 55 hstem
            234 61 vstem
            234 -121 rmoveto
            -35 callsubr
            39 25 37 43 32 hvcurveto
            -58 hlineto
            -33 -25 -38 -45 -54 vvcurveto
            endchar
          </CharString>
          <CharString index="97">
            rmoveto
            69 hlineto
            -88 112 rlineto
            -94 hlineto
            endchar
          </CharString>
          <CharString index="98">
            41 callgsubr
            124 callgsubr
            return
          </CharString>
          <CharString index="99">
            183 78 78 -36 callsubr
            return
          </CharString>
          <CharString index="100">
            4 hlineto
            67 -68 rlineto
            return
          </CharString>
          <CharString index="101">
            148 rlineto
            return
          </CharString>
          <CharString index="102">
            -12 68 374 return
          </CharString>
          <CharString index="103">
            350 149 hstem
            209 68 vstem
            353 699 rmoveto
            -90 -46 -54 -83 -100 vvcurveto
            -75 38 -45 52 43 31 31 46 42 -29 30 -41 -9 -9 -2 -4 -8 vhcurveto
            4 69 37 53 62 36 rrcurveto
            endchar
          </CharString>
          <CharString index="104">
            18 callsubr
            hintmask 10100000
            -25 callsubr
            return
          </CharString>
          <CharString index="105">
            40 callgsubr
            -70 hlineto
            return
          </CharString>
          <CharString index="106">
            -18 -38 rlineto
            29 -7 22 122 callsubr
            9 -40 rlineto
            75 6 69 27 58 vvcurveto
            return
          </CharString>
          <CharString index="107">
            33 19 -43 50 hhcurveto
            46 28 38 98 callsubr
            return
          </CharString>
          <CharString index="108">
            rmoveto
            83 112 rlineto
            -77 hlineto
            -66 -19 callsubr
            158 hmoveto
            59 hlineto
            84 112 rlineto
            -77 hlineto
            endchar
          </CharString>
          <CharString index="109">
            375 rmoveto
            -34 36 38 -20 55 hhcurveto
            71 53 42 63 64 -46 36 -66 -20 -20 -4 -9 -16 hvcurveto
            10 70 rlineto
            139 55 -189 hlineto
            -17 -155 31 -21 rlineto
            15 20 18 9 26 hhcurveto
            return
          </CharString>
          <CharString index="110">
            35 -124 rmoveto
            26 20 19 27 26 196 callgsubr
            -19 -19 -26 -27 19 -19 26 hvcurveto
            -172 hmoveto
            26 19 19 27 26 -19 19 -26 -26 -20 -19 -26 -27 20 -19 26 hvcurveto
            endchar
          </CharString>
          <CharString index="111">
            hstem
            410 83 vstem
            81 97 rmoveto
            -76 45 76 -33 74 hhcurveto
            163 54 100 122 hvcurveto
            447 -358 -70 275 -370 vlineto
            -108 -42 -48 -94 -51 -50 28 58 -38 vhcurveto
            return
          </CharString>
          <CharString index="112">
            rmoveto
            -67 -68 107 callsubr
            68 rlineto
            -66 72 callsubr
          </CharString>
          <CharString index="113">
            43 159 42 hstem
            311 59 vstem
            277 800 rmoveto
            48 8 45 20 51 vvcurveto
            47 -43 23 -78 3 vhcurveto
            -8 -42 rlineto
            49 -3 21 -10 -26 vvcurveto
            -21 -20 -9 -24 -6 vhcurveto
            return
          </CharString>
          <CharString index="114">
            601 57 hstem
            177 246 vstem
            177 601 rmoveto
            246 57 -246 hlineto
            endchar
          </CharString>
          <CharString index="115">
            rmoveto
            53 40 34 54 53 -40 35 -53 -54 -39 -35 -53 -54 39 -34 54 hvcurveto
            36 vmoveto
            -27 -21 19 33 31 21 20 27 25 22 -20 -31 -33 -22 -19 -25 hvcurveto
            endchar
          </CharString>
          <CharString index="116">
            258 18 callgsubr
            return
          </CharString>
          <CharString index="117">
            126 callsubr
            -36 -6 -12 -18 -22 -32 -28 54 return
          </CharString>
          <CharString index="118">
            536 54 hstem
            175 64 157 64 vstem
            175 260 rmoveto
            64 227 hlineto
            32 33 23 17 34 hhcurveto
            48 19 -26 -55 hvcurveto
            -195 64 203 vlineto
            82 return
          </CharString>
          <CharString index="119">
            -6 callsubr
            -63 hlineto
            hintmask 11101000
            37 callgsubr
            hintmask 11011000
            22 callsubr
          </CharString>
          <CharString index="120">
            rmoveto
            -28 20 -19 26 26 20 19 28 29 196 callgsubr
            -20 -19 -29 vhcurveto
            endchar
          </CharString>
          <CharString index="121">
            252 53 232 53 hstem
            137 66 171 64 vstem
            return
          </CharString>
          <CharString index="122">
            29 4 15 14 20 32 20 -43 50 hhcurveto
            46 27 38 98 callsubr
            hintmask 1011101010000000
            -29 -4 -15 -14 -20 hhcurveto
            hintmask 1011011101000000
            -32 -19 43 -51 hhcurveto
            return
          </CharString>
          <CharString index="123">
            110 41 66 82 117 vvcurveto
            78 -31 50 -59 -43 -37 -27 -49 -50 35 -25 43 6 7 1 1 6 vhcurveto
            -3 -79 -41 -51 -82 -37 rrcurveto
            endchar
          </CharString>
          <CharString index="124">
            83 callsubr
            168 264 vstem
            265 573 123 callgsubr
            37 callgsubr
            22 callsubr
          </CharString>
          <CharString index="125">
            -48 callsubr
            -39 callsubr
            return
          </CharString>
          <CharString index="126">
            -64 callgsubr
            120 -21 return
          </CharString>
          <CharString index="127">
            60 callgsubr
            53 -45 31 -61 -46 -44 -18 -27 -25 vhcurveto
            29 -38 rlineto
            20 20 30 14 24 hhcurveto
            38 17 -17 -26 -31 -26 -20 -55 hvcurveto
            return
          </CharString>
          <CharString index="128">
            rmoveto
            -247 -58 247 hlineto
            endchar
          </CharString>
          <CharString index="129">
            -67 99 rlineto
            -63 hlineto
            endchar
          </CharString>
          <CharString index="130">
            vstem
            -31 callsubr
            return
          </CharString>
          <CharString index="131">
            rmoveto
            -18 -38 rlineto
            29 -7 22 81 callgsubr
            -52 -7 vhcurveto
            8 -40 rlineto
            75 147 callgsubr
          </CharString>
          <CharString index="132">
            rmoveto
            58 hlineto
            64 65 rlineto
            4 hlineto
            64 -65 rlineto
            58 hlineto
            -86 104 rlineto
            -76 hlineto
            return
          </CharString>
          <CharString index="133">
            rmoveto
            67 68 rlineto
            -7 callsubr
            return
          </CharString>
          <CharString index="134">
            -80 callgsubr
            hstemhm
            -48 callsubr
            hintmask 10100000
            124 callgsubr
            hlineto
            hintmask 01100000
            661 179 callsubr
            return
          </CharString>
          <CharString index="135">
            72 -187 rlineto
            42 hlineto
            71 187 rlineto
            4 hlineto
            -7 -105 rlineto
            -137 55 310 -71 vlineto
            -44 -114 -26 -80 rlineto
            -4 hlineto
            -27 80 return
          </CharString>
          <CharString index="136">
            -36 -6 -13 -18 -21 -32 -29 54 -48 hhcurveto
            return
          </CharString>
          <CharString index="137">
            hstemhm
            72 71 -43 79 -77 69 return
          </CharString>
          <CharString index="138">
            553 rmoveto
            -97 callgsubr
            return
          </CharString>
          <CharString index="139">
            48 callgsubr
            -33 11 vhcurveto
            19 return
          </CharString>
          <CharString index="140">
            -97 callgsubr
            endchar
          </CharString>
          <CharString index="141">
            351 706 rmoveto
            -88 112 rlineto
            -94 hlineto
            113 -19 callsubr
            return
          </CharString>
          <CharString index="142">
            -156 -622 -261 hlineto
            endchar
          </CharString>
          <CharString index="143">
            -200 1000 hstem
            return
          </CharString>
          <CharString index="144">
            50 98 38 94 49 hstemhm
            342 63 -48 63 hintmask 11101000
            172 return
          </CharString>
          <CharString index="145">
            -59 callgsubr
            hstemhm
            60 85 return
          </CharString>
          <CharString index="146">
            -64 rmoveto
            47 11 46 18 54 vvcurveto
            47 return
          </CharString>
          <CharString index="147">
            117 hmoveto
            98 hlineto
            56 245 rlineto
            return
          </CharString>
          <CharString index="148">
            -48 rlineto
            55 -2 28 84 callsubr
            return
          </CharString>
          <CharString index="149">
            45 -29 22 -68 10 vhcurveto
            return
          </CharString>
          <CharString index="150">
            261 -622 156 return
          </CharString>
          <CharString index="151">
            183 78 78 78 return
          </CharString>
          <CharString index="152">
            63 callgsubr
            339 rmoveto
            190 callsubr
            return
          </CharString>
          <CharString index="153">
            rmoveto
            14 155 1 57 rlineto
            -59 hlineto
            4 -212 rlineto
            endchar
          </CharString>
          <CharString index="154">
            rmoveto
            64 hlineto
            hintmask 10101110
            -11 callgsubr
            hintmask 10110110
            146 callsubr
          </CharString>
          <CharString index="155">
            50 230 49 hstem
            161 61 156 61 vstem
            300 return
          </CharString>
          <CharString index="156">
            rmoveto
            63 hlineto
            -90 -6 callsubr
            -90 hlineto
            endchar
          </CharString>
          <CharString index="157">
            -148 rlineto
            63 hlineto
            return
          </CharString>
          <CharString index="158">
            21 131 callsubr
            return
          </CharString>
          <CharString index="159">
            18 38 rlineto
            -28 7 -23 11 27 vvcurveto
            25 37 13 52 7 vhcurveto
            -8 41 rlineto
            -76 -7 -69 -27 -58 vvcurveto
            return
          </CharString>
          <CharString index="160">
            rmoveto
            300 78 -222 583 -78 hlineto
            return
          </CharString>
          <CharString index="161">
            678 106 callsubr
          </CharString>
          <CharString index="162">
            261 -661 156 return
          </CharString>
          <CharString index="163">
            98 callgsubr
            82 return
          </CharString>
          <CharString index="164">
            -10 23 195 callsubr
            return
          </CharString>
          <CharString index="165">
            hstemhm
            81 80 272 82 return
          </CharString>
          <CharString index="166">
            -261 661 -156 return
          </CharString>
          <CharString index="167">
            61 callgsubr
            600 return
          </CharString>
          <CharString index="168">
            rlineto
            71 vlineto
            -143 -5 5 160 rlineto
            -70 hlineto
            5 -160 -143 5 rlineto
            -71 vlineto
            143 return
          </CharString>
          <CharString index="169">
            rmoveto
            39 -34 153 160 rlineto
            80 vlineto
            -153 160 -39 -35 127 -165 rlineto
            endchar
          </CharString>
          <CharString index="170">
            431 818 -66 callsubr
            return
          </CharString>
          <CharString index="171">
            -20 callgsubr
            hstemhm
            83 79 return
          </CharString>
          <CharString index="172">
            -12 66 callgsubr
            return
          </CharString>
          <CharString index="173">
            hstem
            168 91 82 91 vstem
            return
          </CharString>
          <CharString index="174">
            hlineto
            97 -6 callsubr
            return
          </CharString>
          <CharString index="175">
            0 71 515 70 return
          </CharString>
          <CharString index="176">
            hintmask 10100000
            112 callgsubr
            hlineto
            hintmask 01100000
            181 callgsubr
            -261 return
          </CharString>
          <CharString index="177">
            93 rmoveto
            -23 callsubr
            6 hvcurveto
            -46 hlineto
            return
          </CharString>
          <CharString index="178">
            216 72 hstem
            134 332 vstem
            134 216 rmoveto
            332 72 -332 hlineto
            endchar
          </CharString>
          <CharString index="179">
            hlineto
            96 -19 callsubr
            79 hlineto
            96 112 rlineto
            endchar
          </CharString>
          <CharString index="180">
            52 rmoveto
            39 34 -127 166 127 165 -39 35 -153 -160 rlineto
            -80 vlineto
            return
          </CharString>
          <CharString index="181">
            110 callsubr
            60 85 return
          </CharString>
          <CharString index="182">
            -500 rmoveto
            50 vlineto
            -270 450 rlineto
            -30 hlineto
            return
          </CharString>
          <CharString index="183">
            -54 callsubr
            -31 return
          </CharString>
          <CharString index="184" raw="1">
            16550a0b   
          </CharString>
          <CharString index="185">
            26 58 callgsubr
            -26 -26 return
          </CharString>
          <CharString index="186">
            148 callsubr
            hstemhm
            return
          </CharString>
          <CharString index="187">
            hstemhm
            60 85 310 85 return
          </CharString>
          <CharString index="188">
            -7 115 rlineto
            -68 hlineto
            return
          </CharString>
          <CharString index="189">
            -53 -28 -46 -63 -7 hvcurveto
            return
          </CharString>
          <CharString index="190">
            573 148 hstem
            return
          </CharString>
          <CharString index="191">
            -14 -26 vvcurveto
            -25 return
          </CharString>
          <CharString index="192">
            -64 callsubr
            107 148 56 callsubr
            25 68 hintmask 10111100
            return
          </CharString>
          <CharString index="193">
            vmoveto
            33 29 25 42 41 -29 25 -33 -33 -29 -25 -41 -42 29 -25 33 hvcurveto
            endchar
          </CharString>
          <CharString index="194">
            216 72 hstem
            80 440 vstem
            80 216 rmoveto
            440 72 -440 hlineto
            endchar
          </CharString>
          <CharString index="195">
            113 callgsubr
            -42 111 hstemhm
            32 536 hintmask 11101100
            return
          </CharString>
          <CharString index="196">
            189 callgsubr
            -5 -25 -40 -49 hhcurveto
            -49 -24 40 43 return
          </CharString>
          <CharString index="197">
            486 rmoveto
            -66 -5 rlineto
            -62 66 -419 82 419 103 67 -103 77 vlineto
            62 return
          </CharString>
          <CharString index="198">
            -27 callgsubr
            75 164 callsubr
            79 84 -8 46 198 46 -5 81 return
          </CharString>
          <CharString index="199">
            rmoveto
            524 2 hlineto
            -259 494 rlineto
            -4 hlineto
            -261 -494 rlineto
            endchar
          </CharString>
          <CharString index="200">
            13 27 hhcurveto
            61 24 -44 -68 -76 -39 -44 -53 -22 -28 8 22 -28 hvcurveto
            endchar
          </CharString>
          <CharString index="201">
            hstemhm
            184 238 -77 62 hintmask 11100000
            184 return
          </CharString>
          <CharString index="202">
            vvcurveto
            -57 42 -30 53 27 34 13 15 19 vhcurveto
            return
          </CharString>
          <CharString index="203">
            -21 277 68 244 67 return
          </CharString>
          <CharString index="204">
            -28 -46 -63 -6 hvcurveto
            endchar
          </CharString>
          <CharString index="205">
            53 164 callgsubr
            return
          </CharString>
          <CharString index="206">
            rmoveto
            -47 callsubr
            return
          </CharString>
          <CharString index="207">
            -34 rlineto
            26 19 25 16 27 hhcurveto
            39 22 -22 -36 -45 -57 -46 -104 -80 hvcurveto
            return
          </CharString>
          <CharString index="208">
            21 96 callsubr
            50 112 hstem
            100 83 267 83 vstem
            return
          </CharString>
          <CharString index="209">
            29 -29 42 8 9 2 3 8 vhcurveto
            -4 -69 -38 -53 -61 -35 rrcurveto
            endchar
          </CharString>
          <CharString index="210">
            rmoveto
            63 hlineto
            -91 120 callgsubr
          </CharString>
          <CharString index="211">
            -52 callsubr
            75 return
          </CharString>
          <CharString index="212">
            75 hstem
            290 63 vstem
            290 return
          </CharString>
          <CharString index="213">
            78 132 callsubr
          </CharString>
          <CharString index="214">
            rlineto
            -4 hlineto
            -67 return
          </CharString>
          <CharString index="215">
            242 vlineto
            50 50 50 23 43 hhcurveto
            97 40 -72 -107 -120 -63 -73 return
          </CharString>
          <CharString index="216">
            72 vlineto
            149 74 -92 -165 -166 -74 -97 -149 hvcurveto
            endchar
          </CharString>
          <CharString index="217">
            -51 callgsubr
            214 -20 hstemhm
            return
          </CharString>
          <CharString index="218">
            rmoveto
            30 hlineto
            -330 550 rlineto
            -50 vlineto
            return
          </CharString>
          <CharString index="219">
            331 rmoveto
            56 hlineto
            58 73 rlineto
            4 hlineto
            return
          </CharString>
          <CharString index="220">
            21 -71 callgsubr
            52 43 return
          </CharString>
          <CharString index="221">
            169 hstem
            219 162 vstem
            219 return
          </CharString>
          <CharString index="222">
            -7 83 rlineto
            -68 hlineto
            return
          </CharString>
          <CharString index="223">
            -239 1078 hstem
            -39 678 vstem
            39 839 rmoveto
            -78 -78 hlineto
            return
          </CharString>
          <CharString index="224">
            hstem
            71 77 90 124 90 77 vstem
            300 -12 rmoveto
            142 87 return
          </CharString>
          <CharString index="225">
            -78 -661 -26 callsubr
          </CharString>
          <CharString index="226">
            -114 rlineto
            51 hlineto
            endchar
          </CharString>
          <CharString index="227">
            -11 -26 vvcurveto
            -26 return
          </CharString>
          <CharString index="228">
            hstem
            18 113 37 113 37 113 37 113 vstem
            18 return
          </CharString>
          <CharString index="229">
            81 callgsubr
            -53 -7 vhcurveto
            return
          </CharString>
          <CharString index="230">
            -184 -21 193 69 372 69 return
          </CharString>
          <CharString index="231">
            -65 callsubr
            hstemhm
            77 83 return
          </CharString>
          <CharString index="232">
            21 56 callgsubr
            return
          </CharString>
          <CharString index="233">
            28 47 62 6 hvcurveto
            -47 hlineto
            return
          </CharString>
          <CharString index="234">
            42 -42 75 hstemhm
            156 63 return
          </CharString>
          <CharString index="235">
            -261 622 -156 return
          </CharString>
          <CharString index="236">
            -63 4 37 -71 89 hhcurveto
            return
          </CharString>
          <CharString index="237">
            -7 23 120 callsubr
            return
          </CharString>
          <CharString index="238">
            -21 419 67 return
          </CharString>
          <CharString index="239">
            -678 hlineto
            endchar
          </CharString>
          <CharString index="240">
            -10 callgsubr
            183 return
          </CharString>
          <CharString index="241">
            52 vhcurveto
            -28 45 rlineto
            -29 -39 -42 -16 -60 hhcurveto
            -130 -101 return
          </CharString>
          <CharString index="242">
            23 -78 2 vhcurveto
            -7 -41 rlineto
            49 -2 20 -13 -26 vvcurveto
            -21 return
          </CharString>
          <CharString index="243">
            573 rmoveto
            -90 -6 callsubr
            -90 hlineto
            117 -148 rlineto
            return
          </CharString>
          <CharString index="244">
            vvcurveto
            -75 -41 -68 -83 -37 vhcurveto
            -50 453 71 vlineto
            endchar
          </CharString>
          <CharString index="245">
            -156 -661 -261 hlineto
            endchar
          </CharString>
          <CharString index="246">
            rmoveto
            -246 -58 246 hlineto
            endchar
          </CharString>
          <CharString index="247">
            -21 427 71 return
          </CharString>
          <CharString index="248">
            -378 hlineto
            endchar
          </CharString>
          <CharString index="249">
            -200 1000 hstemhm
            0 300 0 300 hintmask 11000000
            return
          </CharString>
          <CharString index="250">
            55 hstem
            49 63 112 66 192 64 vstem
            546 return
          </CharString>
          <CharString index="251">
            rmoveto
            56 hlineto
            25 225 2 110 rlineto
            -110 hlineto
            return
          </CharString>
          <CharString index="252">
            434 rmoveto
            54 hlineto
            34 156 16 100 rlineto
            -81 hlineto
            return
          </CharString>
          <CharString index="253">
            40 callgsubr
            -71 hlineto
            endchar
          </CharString>
          <CharString index="254">
            78 -300 194 callsubr
          </CharString>
          <CharString index="255">
            -21 424 74 -20 20 -12 -20 return
          </CharString>
          <CharString index="256">
            68 589 67 hstemhm
            247 82 return
          </CharString>
          <CharString index="257">
            rmoveto
            113 156 -113 hlineto
            return
          </CharString>
          <CharString index="258">
            hstem
            32 536 vstem
            return
          </CharString>
          <CharString index="259">
            75 111 112 return
          </CharString>
          <CharString index="260">
            -216 40 -19 -21 return
          </CharString>
          <CharString index="261">
            184 callsubr
            222 return
          </CharString>
          <CharString index="262">
            vhcurveto
            -126 vlineto
            -42 -37 -39 -22 -36 hhcurveto
            -49 -31 return
          </CharString>
          <CharString index="263">
            -250 rmoveto
            50 vlineto
            -120 200 rlineto
            -30 hlineto
            return
          </CharString>
          <CharString index="264">
            -61 vlineto
            -40 -21 -49 -16 -68 -10 rrcurveto
            -53 136 return
          </CharString>
          <CharString index="265">
            44 -28 rlineto
            25 45 32 14 53 hhcurveto
            95 62 -52 return
          </CharString>
          <CharString index="266">
            42 callsubr
            endchar
          </CharString>
          <CharString index="267">
            129 callsubr
            endchar
          </CharString>
          <CharString index="268">
            -7 callgsubr
            38 return
          </CharString>
          <CharString index="269" raw="1">
            d07f7712 c7e00b  
          </CharString>
          <CharString index="270">
            -11 -25 -7 vhcurveto
            endchar
          </CharString>
          <CharString index="271">
            56 -4 56 hstemhm
            return
          </CharString>
          <CharString index="272">
            55 0 54 hstemhm
            return
          </CharString>
          <CharString index="273">
            -250 1000 hstem
            263 74 vstem
            263 return
          </CharString>
          <CharString index="274">
            rmoveto
            -47 47 73 -43 110 hhcurveto
            127 104 return
          </CharString>
          <CharString index="275">
            708 43 51 13 hstem
            178 244 vstem
            return
          </CharString>
          <CharString index="276">
            67 hstem
            408 79 vstem
            73 hmoveto
            449 71 return
          </CharString>
          <CharString index="277">
            31 31 -22 24 -32 -32 -22 -24 -31 -31 22 return
          </CharString>
          <CharString index="278">
            575 47 55 25 hstem
            174 252 vstem
            return
          </CharString>
          <CharString index="279">
            721 -19 callgsubr
            return
          </CharString>
          <CharString index="280">
            -50 callsubr
            endchar
          </CharString>
          <CharString index="281">
            261 rmoveto
            378 78 141 callsubr
          </CharString>
          <CharString index="282">
            -21 309 72 275 -20 return
          </CharString>
          <CharString index="283">
            156 222 -156 hlineto
            return
          </CharString>
          <CharString index="284">
            140 callsubr
            214 -20 return
          </CharString>
          <CharString index="285">
            -24 -40 -49 hhcurveto
            -49 return
          </CharString>
          <CharString index="286">
            300 78 -300 return
          </CharString>
          <CharString index="287">
            -34 45 45 36 34 return
          </CharString>
          <CharString index="288">
            69 85 307 76 return
          </CharString>
          <CharString index="289">
            87 77 callgsubr
            return
          </CharString>
          <CharString index="290">
            127 149 callgsubr
            return
          </CharString>
          <CharString index="291">
            -400 1400 -67 callgsubr
            return
          </CharString>
          <CharString index="292">
            127 callgsubr
            107 148 return
          </CharString>
          <CharString index="293">
            -9 -9 -2 -4 -9 vhcurveto
            5 69 37 53 return
          </CharString>
          <CharString index="294">
            rmoveto
            -48 33 -30 40 40 33 30 48 vhcurveto
            return
          </CharString>
          <CharString index="295">
            rmoveto
            68 hlineto
            112 111 rlineto
            -91 hlineto
            return
          </CharString>
          <CharString index="296">
            720 rmoveto
            58 hlineto
            103 103 rlineto
            -79 hlineto
            return
          </CharString>
          <CharString index="297">
            300 661 -78 -583 -222 hlineto
            return
          </CharString>
          <CharString index="298">
            49 67 -43 114 hhcurveto
            122 114 return
          </CharString>
          <CharString index="299">
            -55 -59 -24 -49 hhcurveto
            -202 -255 rmoveto
            return
          </CharString>
          <CharString index="300">
            -25 callsubr
            55 callsubr
            return
          </CharString>
          <CharString index="301">
            661 118 callsubr
          </CharString>
          <CharString index="302">
            -13 -26 vvcurveto
            -27 return
          </CharString>
          <CharString index="303">
            68 627 -20 return
          </CharString>
        <CharString name=".notdef">
          0 58 542 60 hstem
          62 65 345 66 vstem
          62 hmoveto
          476 660 -476 hlineto
          65 -550 rmoveto
          462 vlineto
          128 -232 rlineto
          90 hmoveto
          127 232 rlineto
          -462 vlineto
          -302 -52 rmoveto
          74 132 54 103 rlineto
          4 hlineto
          52 -103 73 -132 rlineto
          -129 329 rmoveto
          -50 94 -66 119 rlineto
          235 hlineto
          -66 -119 -49 -94 rlineto
          endchar
        </CharString>
        <CharString name="A">
          21 -71 callgsubr
          151 callsubr
          201 267 -105 callgsubr
        </CharString>
        <CharString name="AE">
          0 71 120 67 52 71 205 70 hstem
          317 76 vstem
          185 258 rmoveto
          46 119 27 71 29 70 27 72 rlinecurve
          3 -332 hlineto
          76 -187 rmoveto
          239 147 71 -147 205 189 70 -323 vlineto
          -260 -656 rlineto
          87 hlineto
          73 191 rlineto
          158 -191 274 71 hlineto
          endchar
        </CharString>
        <CharString name="Aacute">
          3 callgsubr
          63 callsubr
          -117 -439 -105 callgsubr
        </CharString>
        <CharString name="Abreve">
          21 -71 callgsubr
          52 47 151 callsubr
          373 818 rmoveto
          -60 callgsubr
          80 36 54 56 7 hvcurveto
          -222 -551 -105 callgsubr
        </CharString>
        <CharString name="Acircumflex">
          3 callgsubr
          298 774 rmoveto
          -7 callsubr
          67 hlineto
          -96 112 rlineto
          -80 hlineto
          -96 -19 callsubr
          67 hlineto
          -30 -439 -105 callgsubr
        </CharString>
        <CharString name="Adieresis">
          21 -71 callgsubr
          59 148 callgsubr
          386 715 rmoveto
          29 20 21 28 29 -20 20 -29 -28 -21 -20 -29 -28 21 -21 28 hvcurveto
          -172 hmoveto
          28 21 21 28 29 -21 20 -28 -29 -20 -20 -29 -28 20 -21 29 hvcurveto
          -13 -448 -105 callgsubr
        </CharString>
        <CharString name="Agrave">
          3 callgsubr
          34 callsubr
          -81 -439 -105 callgsubr
        </CharString>
        <CharString name="Amacron">
          21 -71 callgsubr
          73 57 hstem
          176 248 vstem
          424 786 rmoveto
          -248 -57 248 hlineto
          -223 -462 -105 callgsubr
        </CharString>
        <CharString name="Aogonek">
          -212 59 174 -71 callgsubr
          hstem
          424 64 vstem
          201 267 rmoveto
          31 100 23 73 21 72 21 76 rlinecurve
          4 hlineto
          21 -76 21 -72 23 -73 31 -100 rcurveline
          179 -406 rmoveto
          -9 -12 -13 -5 -17 hhcurveto
          -23 -23 15 31 42 34 46 46 19 hvcurveto
          -221 656 rlineto
          -94 hlineto
          -221 -656 rlineto
          85 hlineto
          63 200 rlineto
          238 hlineto
          62 -200 rlineto
          19 hlineto
          -35 -23 -40 -48 -54 95 callsubr
          endchar
        </CharString>
        <CharString name="Aring">
          21 -71 callgsubr
          43 157 callgsubr
          838 rmoveto
          25 22 -20 -31 -33 -22 -19 -25 -27 -21 19 33 31 21 20 27 hvcurveto
          -139 vmoveto
          53 40 34 54 53 -40 35 -53 -54 -39 -35 -53 -54 39 -34 54 hvcurveto
          -99 -432 -105 callgsubr
        </CharString>
        <CharString name="Atilde">
          21 -71 callgsubr
          55 164 callsubr
          155 46 198 46 hintmask 11101110
          399 819 rmoveto
          hintmask 11110110
          -37 callsubr
          hintmask 11101110
          -58 callgsubr
          83 callgsubr
          48 31 47 61 6 hvcurveto
          -244 -552 -105 callgsubr
        </CharString>
        <CharString name="B">
          0 66 248 62 214 66 hstemhm
          103 84 239 82 -45 82 hintmask 11110100
          103 hmoveto
          195 hlineto
          146 101 63 129 90 -56 52 -96 15 hvcurveto
          4 vlineto
          hintmask 11111000
          77 20 38 58 65 vvcurveto
          115 -91 45 -134 vhcurveto
          -180 hlineto
          84 -280 rmoveto
          214 86 vlineto
          101 52 -30 -71 -73 -45 -40 -112 hvcurveto
          -82 -310 rmoveto
          248 99 vlineto
          hintmask 11110100
          115 62 -37 -81 -89 -65 -41 -112 hvcurveto
          endchar
        </CharString>
        <CharString name="C">
          -7 callgsubr
          hstem
          66 86 -96 callgsubr
          endchar
        </CharString>
        <CharString name="Cacute">
          -41 callgsubr
          hstem
          66 86 -96 callgsubr
          412 490 -66 callsubr
          endchar
        </CharString>
        <CharString name="Ccaron">
          -41 callgsubr
          hstem
          66 86 -96 callgsubr
          350 490 -76 callsubr
        </CharString>
        <CharString name="Ccedilla">
          -213 41 162 71 534 73 hstem
          66 86 194 64 vstem
          506 134 rmoveto
          -47 -42 -45 -26 -60 hhcurveto
          -126 -81 104 165 163 81 102 126 55 43 -24 -36 34 hvcurveto
          47 53 rlineto
          42 -38 -62 38 -79 hhcurveto
          -171 -122 -129 -211 -197 104 -122 146 -19 hvcurveto
          -34 -65 32 callsubr
          38 77 4 59 35 49 56 rlinecurve
          endchar
        </CharString>
        <CharString name="Ccircumflex">
          -41 callgsubr
          hstem
          66 86 -96 callgsubr
          212 378 -86 callsubr
          endchar
        </CharString>
        <CharString name="Cdotaccent">
          -7 callgsubr
          46 107 hstem
          66 86 138 114 -96 callgsubr
          281 386 -75 callgsubr
        </CharString>
        <CharString name="D">
          0 68 520 68 hstem
          85 83 295 86 vstem
          -77 callsubr
          endchar
        </CharString>
        <CharString name="Dcaron">
          0 68 520 68 50 112 hstem
          85 83 295 86 vstem
          -77 callsubr
          127 750 rmoveto
          -66 -72 callsubr
          79 hlineto
          96 112 rlineto
          endchar
        </CharString>
        <CharString name="Dcroat">
          -45 callgsubr
        </CharString>
        <CharString name="E">
          0 -57 callsubr
          hstem
          115 84 vstem
          -99 callgsubr
          endchar
        </CharString>
        <CharString name="Eacute">
          0 -57 callsubr
          50 112 hstem
          115 84 vstem
          -99 callgsubr
          347 162 -66 callsubr
          endchar
        </CharString>
        <CharString name="Ebreve">
          0 -57 callsubr
          52 47 hstem
          115 84 vstem
          -99 callgsubr
          216 52 rmoveto
          80 36 54 56 7 hvcurveto
          -51 hlineto
          -32 -6 -21 -31 -45 hhcurveto
          -46 -21 31 32 -6 hvcurveto
          -50 hlineto
          -56 6 37 -54 80 hhcurveto
          endchar
        </CharString>
        <CharString name="Ecaron">
          0 -57 callsubr
          50 112 hstem
          115 84 vstem
          -99 callgsubr
          285 162 -50 callgsubr
          79 hlineto
          96 112 rlineto
          endchar
        </CharString>
        <CharString name="Ecircumflex">
          0 -57 callsubr
          50 112 hstem
          115 84 vstem
          -99 callgsubr
          147 50 -24 callsubr
          endchar
        </CharString>
        <CharString name="Edieresis">
          0 -57 callsubr
          59 98 hstemhm
          115 84 -4 98 75 98 hintmask 11101000
          -99 callgsubr
          hintmask 11110110
          129 59 rmoveto
          29 20 21 28 29 -20 20 -29 -28 -21 -20 -29 -28 21 -21 28 hvcurveto
          173 hmoveto
          28 21 21 28 29 -21 20 -28 -28 -21 -20 -29 -28 21 -21 28 hvcurveto
          endchar
        </CharString>
        <CharString name="Edotaccent">
          0 -57 callsubr
          58 107 hstem
          115 84 75 113 vstem
          -99 callgsubr
          216 58 rmoveto
          32 24 22 32 31 -24 22 -32 -32 -25 -22 -31 -32 25 -22 32 hvcurveto
          endchar
        </CharString>
        <CharString name="Egrave">
          0 -57 callsubr
          50 112 hstem
          115 84 vstem
          -99 callgsubr
          198 50 -10 callsubr
        </CharString>
        <CharString name="Emacron">
          0 -57 callsubr
          73 57 hstemhm
          115 84 8 248 hintmask 11111000
          -99 callgsubr
          hintmask 11111100
          92 73 35 callgsubr
        </CharString>
        <CharString name="Eogonek">
          -212 59 153 -57 callsubr
          hstem
          115 84 171 65 vstem
          115 hmoveto
          330 hlineto
          -37 -24 -38 -46 -55 vvcurveto
          -57 43 -30 52 27 102 callgsubr
          53 46 48 45 6 hvcurveto
          4 71 -331 238 271 71 -271 206 321 70 -405 hlineto
          endchar
        </CharString>
        <CharString name="Eth">
          -45 callgsubr
        </CharString>
        <CharString name="Euro">
          -12 66 181 48 67 49 185 66 hstem
          116 85 vstem
          517 125 rmoveto
          -46 -40 -41 -25 -57 hhcurveto
          -92 -60 68 113 -19 hvcurveto
          253 48 -259 hlineto
          -1 12 0 13 13 vvcurveto
          10 0 10 1 9 vhcurveto
          299 49 -294 hlineto
          115 18 62 70 98 hhcurveto
          51 38 -24 -35 34 hvcurveto
          49 47 rlineto
          44 -40 -61 34 -68 hhcurveto
          -141 -100 -94 -157 -25 hvcurveto
          -64 -5 rlineto
          -44 59 vlineto
          -1 -10 0 -11 -11 vvcurveto
          -12 0 -12 1 -12 vhcurveto
          -59 -4 rlineto
          -43 64 vlineto
          -156 25 97 -91 130 hhcurveto
          82 60 35 58 50 hvcurveto
          endchar
        </CharString>
        <CharString name="F">
          21 -21 294 70 222 70 hstem
          135 83 vstem
          135 hmoveto
          83 294 269 70 -269 222 318 70 -401 hlineto
          endchar
        </CharString>
        <CharString name="G">
          65 callsubr
          hstem
          53 87 316 77 vstem
          -102 callsubr
          endchar
        </CharString>
        <CharString name="Gbreve">
          65 callsubr
          40 47 hstem
          53 87 316 77 vstem
          -102 callsubr
          278 380 rmoveto
          80 37 54 56 6 hvcurveto
          -50 hlineto
          -32 -6 -22 -31 -45 hhcurveto
          -45 -21 31 32 -6 hvcurveto
          -51 hlineto
          -56 7 36 -54 80 hhcurveto
          endchar
        </CharString>
        <CharString name="Gcaron">
          65 callsubr
          38 112 hstem
          53 87 316 77 vstem
          -102 callsubr
          347 490 5 callsubr
        </CharString>
        <CharString name="Gcircumflex">
          65 callsubr
          38 112 hstem
          53 87 316 77 vstem
          -102 callsubr
          209 378 26 callsubr
          67 hlineto
          -96 112 rlineto
          -79 hlineto
          -96 -19 callsubr
          endchar
        </CharString>
        <CharString name="Gdotaccent">
          65 callsubr
          46 107 hstem
          53 87 134 114 68 77 vstem
          -102 callsubr
          278 386 -75 callgsubr
        </CharString>
        <CharString name="H">
          21 175 callsubr
          hstem
          79 84 274 84 vstem
          -23 callgsubr
          endchar
        </CharString>
        <CharString name="Hbar">
          21 -21 309 72 111 47 -47 164 hstemhm
          79 84 274 84 hintmask 11101100
          437 381 rmoveto
          -274 111 274 hlineto
          153 47 rmoveto
          -69 hlineto
          182 callgsubr
          -274 vlineto
          182 callgsubr
          vlineto
          -69 -5 rlineto
          -42 69 -492 84 309 274 -309 84 492 69 vlineto
          endchar
        </CharString>
        <CharString name="Hcircumflex">
          21 175 callsubr
          70 112 hstem
          79 84 274 84 vstem
          -23 callgsubr
          152 50 -24 callsubr
          endchar
        </CharString>
        <CharString name="I">
          68 callsubr
          36 callgsubr
          -93 callgsubr
          endchar
        </CharString>
        <CharString name="Iacute">
          68 callsubr
          50 126 callgsubr
          -93 callgsubr
          336 747 -66 callsubr
          endchar
        </CharString>
        <CharString name="Icircumflex">
          68 callsubr
          50 126 callgsubr
          -93 callgsubr
          136 635 -86 callsubr
          endchar
        </CharString>
        <CharString name="Idieresis">
          68 callsubr
          59 98 hstemhm
          165 98 -5 84 -5 98 hintmask 11001000
          -93 callgsubr
          hintmask 11110100
          119 644 -90 callgsubr
        </CharString>
        <CharString name="Idotaccent">
          68 callsubr
          58 107 hstemhm
          243 114 -99 84 hintmask 11001000
          -93 callgsubr
          hintmask 11110000
          205 643 -75 callgsubr
        </CharString>
        <CharString name="Igrave">
          68 callsubr
          50 126 callgsubr
          -93 callgsubr
          187 635 -10 callsubr
        </CharString>
        <CharString name="Imacron">
          68 callsubr
          73 57 36 callgsubr
          -93 callgsubr
          81 658 35 callgsubr
        </CharString>
        <CharString name="Iogonek">
          -212 59 153 71 515 70 hstemhm
          212 64 -18 84 hintmask 01101000
          95 hmoveto
          hintmask 11110000
          183 hlineto
          -32 -29 -34 -39 -57 95 callsubr
          -23 45 rlineto
          -9 -11 -13 -5 -16 hhcurveto
          -24 -24 15 31 41 24 34 42 32 hvcurveto
          163 71 hlineto
          hintmask 01101000
          -163 515 163 70 -410 -70 163 -515 -163 hlineto
          endchar
        </CharString>
        <CharString name="Itilde">
          68 callsubr
          55 164 callsubr
          155 46 57 84 57 46 hintmask 11010100
          -93 callgsubr
          hintmask 11100110
          265 640 -5 callgsubr
        </CharString>
        <CharString name="J">
          -12 73 526 70 4 callsubr
          endchar
        </CharString>
        <CharString name="Jcircumflex">
          -12 73 526 70 49 112 4 callsubr
          117 559 -24 callsubr
          endchar
        </CharString>
        <CharString name="K">
          84 callgsubr
          hstem
          98 84 8 callgsubr
          endchar
        </CharString>
        <CharString name="L">
          0 71 585 -20 hstem
          134 82 vstem
          -40 callgsubr
          endchar
        </CharString>
        <CharString name="Lacute">
          0 71 585 -20 70 112 hstem
          134 82 vstem
          -40 callgsubr
          187 162 -66 callsubr
          endchar
        </CharString>
        <CharString name="Lcaron">
          0 71 443 212 -70 -20 hstemhm
          134 82 171.5 49.5 hintmask 10111000
          -40 callgsubr
          hintmask 11011000
          296 -142 rmoveto
          14 155 1 57 rlineto
          -59 hlineto
          3 -212 rlineto
          endchar
        </CharString>
        <CharString name="Ldot">
          0 71 213 127 245 -20 hstem
          134 82 149 131 vstem
          -40 callgsubr
          296 -372 -69 callgsubr
        </CharString>
        <CharString name="Lslash">
          0 71 585 -20 hstem
          134 82 vstem
          216 71 rmoveto
          196 vlineto
          226 120 rlineto
          68 vlineto
          -226 -120 rlineto
          321 -82 -361 vlineto
          -81 -44 rlineto
          -67 vlineto
          81 43 rlineto
          -227 407 71 vlineto
          endchar
        </CharString>
        <CharString name="M">
          21 -21 178 93 300 85 hstem
          81 70 297 -33 callsubr
          endchar
        </CharString>
        <CharString name="N">
          0 64 callsubr
          276 79 hintmask 01011100
          59 callgsubr
          hintmask 01101100
          -85 callgsubr
          hintmask 10011100
          -74 callgsubr
          endchar
        </CharString>
        <CharString name="Nacute">
          0 -20 callgsubr
          70 112 hstemhm
          83 79 276 79 hintmask 01011110
          59 callgsubr
          hintmask 01101110
          -85 callgsubr
          hintmask 10011110
          -74 callgsubr
          354 162 -66 callsubr
          endchar
        </CharString>
        <CharString name="Ncaron">
          0 -20 callgsubr
          70 112 hstemhm
          83 79 276 79 hintmask 01011110
          59 callgsubr
          hintmask 01101110
          -85 callgsubr
          hintmask 10011110
          -74 callgsubr
          292 162 -76 callsubr
        </CharString>
        <CharString name="Ntilde">
          0 -20 callgsubr
          75 164 callsubr
          83 79 -1 46 198 46 -13 79 hintmask 0101011001000000
          59 callgsubr
          hintmask 0110011001000000
          -85 callgsubr
          hintmask 1001011001000000
          -74 callgsubr
          hintmask 0101101010000000
          283 55 rmoveto
          hintmask 0101011010000000
          27 callgsubr
          hintmask 0101100110000000
          -37 callsubr
          hintmask 0101010101000000
          -58 callgsubr
          hhcurveto
          hintmask 0101101010000000
          83 callgsubr
          endchar
        </CharString>
        <CharString name="O">
          -7 callgsubr
          hstem
          152 callgsubr
          vstem
          -106 callsubr
          endchar
        </CharString>
        <CharString name="OE">
          0 68 -68 71 238 71 207 70 hstemhm
          33 86 191 77 hintmask 01111100
          33 331 rmoveto
          -209 99 -122 164 vhcurveto
          295 71 -204 238 148 71 -148 207 194 70 -282 hlineto
          -166 -100 -117 -209 hvcurveto
          hintmask 10111100
          86 hmoveto
          167 56 90 114 vhcurveto
          21 -520 -21 hlineto
          -114 -56 96 167 hvcurveto
          endchar
        </CharString>
        <CharString name="Oacute">
          -41 callgsubr
          hstem
          152 callgsubr
          vstem
          -106 callsubr
          131 757 -66 callsubr
          endchar
        </CharString>
        <CharString name="Ocircumflex">
          -41 callgsubr
          hstem
          152 callgsubr
          vstem
          -106 callsubr
          -69 645 -86 callsubr
          endchar
        </CharString>
        <CharString name="Odieresis">
          -7 callgsubr
          47 98 hstem
          48 86 31 98 74 98 31 86 vstem
          -106 callsubr
          -86 654 -90 callgsubr
        </CharString>
        <CharString name="Ograve">
          -41 callgsubr
          hstem
          152 callgsubr
          vstem
          -106 callsubr
          -18 645 -10 callsubr
        </CharString>
        <CharString name="Ohorn">
          -7 callgsubr
          hstemhm
          152 callgsubr
          -57 67 hintmask 11110000
          300 61 rmoveto
          -100 -66 106 164 163 66 101 100 100 66 -101 -163 -164 -66 -106 -100 hvcurveto
          hintmask 11101000
          -89 callgsubr
          hintmask 11110000
          -28 callgsubr
          hintmask 11101000
          -22 callsubr
        </CharString>
        <CharString name="Ohungarumlaut">
          -41 callgsubr
          hstem
          152 callgsubr
          vstem
          -106 callsubr
          -49 645 1 callsubr
        </CharString>
        <CharString name="Omacron">
          -7 callgsubr
          61 57 hstem
          48 86 42 248 42 86 vstem
          -106 callsubr
          -124 668 35 callgsubr
        </CharString>
        <CharString name="Oslash">
          -7 callgsubr
          hstem
          152 callgsubr
          vstem
          441 484 rmoveto
          16 -41 9 -52 -60 vvcurveto
          -164 -66 -106 -100 -43 -37 20 35 -28 vhcurveto
          -31 56 rmoveto
          -18 43 -9 54 62 vvcurveto
          163 66 101 100 44 38 -20 -35 28 vhcurveto
          146 114 rmoveto
          -47 32 -54 -79 rlineto
          40 -41 -53 21 -61 hhcurveto
          -148 -104 -127 -210 -97 22 -80 38 -59 hvcurveto
          -63 -93 48 -32 53 79 rlineto
          -40 42 52 -21 60 hhcurveto
          148 104 132 211 95 -21 78 -38 57 hvcurveto
          endchar
        </CharString>
        <CharString name="Otilde">
          89 callgsubr
          hintmask 11011001
          -106 callsubr
          hintmask 11101011
          60 650 rmoveto
          hintmask 11011011
          27 callgsubr
          hintmask 11101111
          -37 callsubr
          hintmask 11011101
          -58 callgsubr
          hhcurveto
          hintmask 11101011
          83 callgsubr
          endchar
        </CharString>
        <CharString name="P">
          21 -21 260 68 261 67 hstem
          102 83 277 83 vstem
          102 hmoveto
          83 260 118 hlineto
          144 98 65 138 144 -97 49 -145 hvcurveto
          -201 hlineto
          83 -328 rmoveto
          261 107 vlineto
          114 56 -31 -95 -93 -55 -42 -115 hvcurveto
          endchar
        </CharString>
        <CharString name="Q">
          -163 71 85 67 537 72 hstem
          49 85 329 85 vstem
          134 331 rmoveto
          163 64 103 101 100 64 -103 -163 -163 -64 -108 -100 -101 -64 108 163 vhcurveto
          404 -413 rmoveto
          -5 -12 -17 -5 -20 hhcurveto
          -68 -52 29 56 -22 hvcurveto
          121 25 80 126 187 vvcurveto
          209 -101 129 -148 -149 -101 -128 -210 -190 83 -127 126 -22 vhcurveto
          -89 33 72 -66 116 hhcurveto
          29 24 6 8 21 hvcurveto
          endchar
        </CharString>
        <CharString name="R">
          21 96 callsubr
          hstem
          100 83 267 83 vstem
          183 589 -56 callsubr
          370 -345 rmoveto
          -167 286 rlineto
          -87 callsubr
          endchar
        </CharString>
        <CharString name="Racute">
          101 callsubr
          436 818 rmoveto
          -94 hlineto
          -89 -19 callsubr
          69 hlineto
          -139 -117 -56 callsubr
          370 -345 rmoveto
          -167 286 rlineto
          -87 callsubr
          endchar
        </CharString>
        <CharString name="Rcaron">
          101 callsubr
          344 706 rmoveto
          96 112 rlineto
          -67 hlineto
          -66 -72 callsubr
          -82 -117 -56 callsubr
          370 -345 rmoveto
          -167 286 rlineto
          -87 callsubr
          endchar
        </CharString>
        <CharString name="S">
          -7 callgsubr
          hstem
          98 85 269 -101 callgsubr
          endchar
        </CharString>
        <CharString name="Sacute">
          -41 callgsubr
          hstem
          98 85 269 -101 callgsubr
          325 675 -66 callsubr
          endchar
        </CharString>
        <CharString name="Scaron">
          -41 callgsubr
          hstem
          98 85 269 -101 callgsubr
          263 675 -76 callsubr
        </CharString>
        <CharString name="Scircumflex">
          -41 callgsubr
          hstem
          98 85 269 -101 callgsubr
          125 563 -86 callsubr
          endchar
        </CharString>
        <CharString name="T">
          21 -21 586 70 36 callgsubr
          -13 callsubr
          endchar
        </CharString>
        <CharString name="Tcaron">
          21 -21 586 70 50 126 callgsubr
          -13 callsubr
          110 232 5 callsubr
        </CharString>
        <CharString name="Thorn">
          21 -21 150 68 260 68 -68 178 hstemhm
          101 84 277 83 hintmask 11101100
          101 hmoveto
          84 150 118 hlineto
          143 99 64 139 143 -97 50 -145 hvcurveto
          -118 hlineto
          hintmask 11011100
          110 -84 vlineto
          84 -438 rmoveto
          hintmask 11101100
          260 107 vlineto
          113 57 -31 -94 -94 -55 -41 -115 hvcurveto
          endchar
        </CharString>
        <CharString name="U">
          -27 callgsubr
          hstem
          79 84 277 81 vstem
          -103 callgsubr
          endchar
        </CharString>
        <CharString name="Uacute">
          -27 callgsubr
          70 112 hstem
          79 84 277 81 vstem
          -103 callgsubr
          352 162 -66 callsubr
          endchar
        </CharString>
        <CharString name="Ubreve">
          -27 callgsubr
          72 47 hstem
          79 84 277 4 callgsubr
          52 rmoveto
          80 36 54 56 7 hvcurveto
          -50 hlineto
          -60 callgsubr
          endchar
        </CharString>
        <CharString name="Ucircumflex">
          -27 callgsubr
          70 112 hstem
          79 84 277 81 vstem
          -103 callgsubr
          152 50 -86 callsubr
          endchar
        </CharString>
        <CharString name="Udieresis">
          -27 callgsubr
          79 98 hstemhm
          79 84 2 98 74 98 5 81 hintmask 11110010
          -103 callgsubr
          hintmask 11101100
          135 59 -90 callgsubr
        </CharString>
        <CharString name="Ugrave">
          -27 callgsubr
          70 112 hstem
          79 84 277 81 vstem
          -103 callgsubr
          203 50 -10 callsubr
        </CharString>
        <CharString name="Uhorn">
          -27 callgsubr
          hstem
          79 84 277 81 42 67 vstem
          548 764 -96 callsubr
        </CharString>
        <CharString name="Uhungarumlaut">
          -27 callgsubr
          70 112 hstem
          79 84 277 81 vstem
          -103 callgsubr
          172 50 1 callsubr
        </CharString>
        <CharString name="Umacron">
          -27 callgsubr
          93 57 hstemhm
          79 84 13 248 16 81 hintmask 11110100
          -103 callgsubr
          hintmask 11111100
          97 73 35 callgsubr
        </CharString>
        <CharString name="Uogonek">
          -212 59 142 72 595 -20 hstem
          79 84 68 65 144 81 vstem
          79 248 rmoveto
          -165 71 -92 146 -2 vhcurveto
          -25 -25 -40 -34 -55 vvcurveto
          -57 43 -30 53 26 102 callgsubr
          36 31 44 70 32 hvcurveto
          74 34 50 73 136 vvcurveto
          408 -81 -410 vlineto
          -136 -61 -49 -79 -79 -58 49 136 vhcurveto
          410 -84 vlineto
          endchar
        </CharString>
        <CharString name="Uring">
          -27 callgsubr
          63 36 103 37 hstem
          79 84 44 45 95 46 47 4 callgsubr
          43 8 callsubr
        </CharString>
        <CharString name="Utilde">
          91 callsubr
          hintmask 11011001
          -103 callgsubr
          hintmask 11101010
          281 55 rmoveto
          hintmask 11011010
          27 callgsubr
          hintmask 11100110
          -37 callsubr
          hintmask 11010101
          -58 callgsubr
          hhcurveto
          hintmask 11101010
          83 callgsubr
          endchar
        </CharString>
        <CharString name="V">
          0 85 571 -20 hstem
          43 514 vstem
          252 hmoveto
          97 hlineto
          208 656 rlineto
          -85 hlineto
          -105 -354 -22 -78 -17 -62 -24 -77 rlinecurve
          -4 hlineto
          -24 77 -16 62 -23 78 -106 354 rcurveline
          -88 hlineto
          endchar
        </CharString>
        <CharString name="W">
          65 callgsubr
          hstem
          10 580 -99 callsubr
          endchar
        </CharString>
        <CharString name="Wacute">
          65 callgsubr
          69 112 hstem
          10 580 -99 callsubr
          421 161 -66 callsubr
          endchar
        </CharString>
        <CharString name="Wcircumflex">
          65 callgsubr
          69 112 hstem
          10 580 -99 callsubr
          221 49 -86 callsubr
          endchar
        </CharString>
        <CharString name="Wdieresis">
          65 callgsubr
          78 98 hstem
          165 98 74 98 -99 callsubr
          204 58 -90 callgsubr
        </CharString>
        <CharString name="Wgrave">
          65 callgsubr
          69 112 hstem
          10 580 -99 callsubr
          272 49 -10 callsubr
        </CharString>
        <CharString name="X">
          84 callgsubr
          hstem
          54 492 vstem
          54 hmoveto
          88 hlineto
          98 177 17 32 17 33 19 40 rlinecurve
          4 hlineto
          22 -40 18 -33 18 -32 99 -177 rcurveline
          92 hlineto
          -196 335 183 321 rlineto
          -88 hlineto
          -90 -168 -16 -30 -13 -27 -18 -38 rlinecurve
          -4 hlineto
          -21 38 -15 27 -17 30 -92 168 rcurveline
          -92 hlineto
          183 -317 rlineto
          endchar
        </CharString>
        <CharString name="Y">
          84 callgsubr
          36 callgsubr
          -98 callgsubr
          endchar
        </CharString>
        <CharString name="Yacute">
          84 callgsubr
          70 126 callgsubr
          -98 callgsubr
          173 584 -66 callsubr
          endchar
        </CharString>
        <CharString name="Ycircumflex">
          84 callgsubr
          70 126 callgsubr
          -98 callgsubr
          -27 472 -86 callsubr
          endchar
        </CharString>
        <CharString name="Ydieresis">
          84 callgsubr
          79 98 hstemhm
          165 98 -5 84 -5 98 hintmask 11101000
          -98 callgsubr
          hintmask 11110100
          -44 481 -90 callgsubr
        </CharString>
        <CharString name="Ygrave">
          84 callgsubr
          70 126 callgsubr
          -98 callgsubr
          24 472 -10 callsubr
        </CharString>
        <CharString name="Z">
          0 71 516 70 hstem
          65 474 -65 callgsubr
          endchar
        </CharString>
        <CharString name="Zacute">
          0 71 516 70 49 112 hstem
          65 474 -65 callgsubr
          381 768 -66 callsubr
          endchar
        </CharString>
        <CharString name="Zcaron">
          0 71 516 70 49 112 hstem
          65 474 -65 callgsubr
          319 768 5 callsubr
        </CharString>
        <CharString name="Zdotaccent">
          0 71 516 70 57 107 hstem
          258 114 -65 callgsubr
          250 664 -75 callgsubr
        </CharString>
        <CharString name="a">
          -52 callsubr
          58 callsubr
          hintmask 10111000
          -98 callsubr
          hintmask 01111000
          -104 callgsubr
          hintmask 10111000
          -104 callsubr
          endchar
        </CharString>
        <CharString name="a.a">
          -12 38 callsubr
          280 82 hintmask 10101100
          -107 callsubr
          hintmask 01011100
          -78 callgsubr
          hintmask 10101100
          -100 callgsubr
          endchar
        </CharString>
        <CharString name="a.supa">
          -52 callgsubr
        </CharString>
        <CharString name="a.sups">
          -63 callsubr
        </CharString>
        <CharString name="aacute">
          104 callsubr
          148 58 callsubr
          hintmask 10111100
          -98 callsubr
          hintmask 01111100
          -104 callgsubr
          hintmask 10111100
          -104 callsubr
          267 589 50 callgsubr
        </CharString>
        <CharString name="aacute.a">
          -76 callgsubr
          107 148 106 callgsubr
          hintmask 10101110
          -107 callsubr
          hintmask 01011110
          -78 callgsubr
          hintmask 10101110
          -100 callgsubr
          362 479 -19 callgsubr
          endchar
        </CharString>
        <CharString name="abreve">
          -52 callsubr
          77 51 hstemhm
          81 80 23 51 158 51 -11 82 hintmask 10111001
          -98 callsubr
          hintmask 01111001
          -104 callgsubr
          hintmask 10111001
          -104 callsubr
          hintmask 10111110
          153 443 rmoveto
          -30 callgsubr
          160 callsubr
        </CharString>
        <CharString name="abreve.a">
          -76 callgsubr
          109 51 hstemhm
          60 85 32 51 158 51 -12 82 hintmask 1010110010000000
          -107 callsubr
          hintmask 0101110010000000
          -78 callgsubr
          hintmask 1010110010000000
          -100 callgsubr
          hintmask 1010111100000000
          247 333 rmoveto
          89 37 71 63 4 -56 callgsubr
          endchar
        </CharString>
        <CharString name="acircumflex">
          104 callsubr
          148 -49 49 58 callsubr
          hintmask 10110110
          -98 callsubr
          hintmask 01110110
          -104 callgsubr
          hintmask 10110110
          -104 callsubr
          20 441 47 callsubr
        </CharString>
        <CharString name="acircumflex.a">
          -76 callgsubr
          107 148 -49 49 106 callgsubr
          hintmask 10101011
          -107 callsubr
          hintmask 01011011
          -78 callgsubr
          hintmask 10101011
          -100 callgsubr
          115 331 rmoveto
          63 hlineto
          hintmask 10100111
          -11 callgsubr
          hintmask 10101011
          -2 callsubr
          endchar
        </CharString>
        <CharString name="acute">
          83 callsubr
          235 180 vstem
          415 172 callsubr
          endchar
        </CharString>
        <CharString name="adieresis">
          -52 callsubr
          90 110 hstemhm
          81 80 2 108 85 108 -31 82 hintmask 10111001
          -98 callsubr
          hintmask 01111001
          -104 callgsubr
          hintmask 10111001
          -104 callsubr
          hintmask 10110110
          56 456 rmoveto
          76 callsubr
          -23 -24 -31 -31 23 -24 31 hvcurveto
          193 hmoveto
          -47 callsubr
          endchar
        </CharString>
        <CharString name="adieresis.a">
          -76 callgsubr
          122 110 hstemhm
          60 85 12 108 85 107 -32 82 hintmask 1010110010000000
          -107 callsubr
          hintmask 0101110010000000
          -78 callgsubr
          hintmask 1010110010000000
          -100 callgsubr
          hintmask 1010111100000000
          151 346 99 callsubr
          192 hmoveto
          76 callsubr
          -22 -24 -31 -31 22 -24 31 hvcurveto
          endchar
        </CharString>
        <CharString name="ae">
          -12 66 169 55 155 65 hstem
          17 76 172 69 194 69 vstem
          17 129 rmoveto
          -87 51 -54 79 51 53 32 59 54 vhcurveto
          -57 32 47 -34 70 hhcurveto
          50 45 20 23 33 hvcurveto
          -29 54 rlineto
          -17 -28 -31 -14 -37 hhcurveto
          -78 -40 68 101 -4 hvcurveto
          258 hlineto
          2 17 2 17 19 vvcurveto
          119 -48 103 -99 -64 -45 -36 -62 -32 vhcurveto
          56 -18 -40 42 -63 hhcurveto
          -60 -55 -26 -26 -40 hvcurveto
          31 -56 rlineto
          21 31 48 20 35 hhcurveto
          63 23 -51 -72 1 hvcurveto
          -164 -25 -84 -57 -97 vvcurveto
          317 149 rmoveto
          97 6 41 58 62 hhcurveto
          65 20 -72 -83 hvcurveto
          -435 -145 rmoveto
          62 49 38 122 21 vhcurveto
          1 -25 1 -38 5 -37 10 -29 rlinecurve
          -46 -35 -45 -25 -34 hhcurveto
          -45 -29 27 52 hvcurveto
          endchar
        </CharString>
        <CharString name="agrave">
          104 callsubr
          148 58 callsubr
          hintmask 10111100
          -98 callsubr
          hintmask 01111100
          -104 callgsubr
          hintmask 10111100
          -104 callsubr
          155 441 103 callsubr
        </CharString>
        <CharString name="agrave.a">
          -76 callgsubr
          107 148 106 callgsubr
          hintmask 10101110
          -107 callsubr
          hintmask 01011110
          -78 callgsubr
          hintmask 10101110
          -100 callgsubr
          249 331 rmoveto
          63 hlineto
          -90 120 callgsubr
        </CharString>
        <CharString name="amacron">
          -52 callsubr
          103 57 hstemhm
          81 80 30 245 -3 82 hintmask 10111010
          -98 callsubr
          hintmask 01111010
          -104 callgsubr
          hintmask 10111010
          -104 callsubr
          hintmask 10111100
          30 469 19 callgsubr
          endchar
        </CharString>
        <CharString name="amacron.a">
          -76 callgsubr
          135 57 hstemhm
          60 85 40 245 -5 82 hintmask 10101101
          -107 callsubr
          hintmask 01011101
          -78 callgsubr
          hintmask 10101101
          -100 callgsubr
          hintmask 10101110
          125 359 19 callgsubr
          endchar
        </CharString>
        <CharString name="ampersand">
          -12 66 555 59 hstemhm
          42 80 -1 71 133 67 hintmask 11101000
          122 175 rmoveto
          51 32 39 42 37 vhcurveto
          45 -71 59 -69 63 -56 rrcurveto
          -32 -34 -40 -20 -41 hhcurveto
          -70 -56 48 73 hvcurveto
          hintmask 11011000
          70 339 rmoveto
          54 27 41 46 44 16 -34 -38 -58 -47 -40 -56 -40 vhcurveto
          -19 40 -11 39 36 vvcurveto
          385 -458 rmoveto
          -35 11 -38 21 -40 31 48 69 34 80 24 86 rrcurveto
          -76 hlineto
          -19 -75 -27 -64 -37 -53 -60 52 -58 65 -42 67 rrcurveto
          69 53 72 55 84 vvcurveto
          77 -46 53 -81 -87 -57 -68 -87 -47 16 -54 28 -54 vhcurveto
          hintmask 11101000
          -64 -47 -59 -55 -86 vvcurveto
          -106 80 -76 116 74 57 29 46 48 vhcurveto
          48 -37 46 -25 43 -13 rrcurveto
          endchar
        </CharString>
        <CharString name="aogonek">
          -206 55 139 -28 callsubr
          hstemhm
          81 80 207 61 4 82 hintmask 11011010
          -98 callsubr
          7 -62 rlineto
          hintmask 11011100
          -39 -25 -41 -46 -54 vvcurveto
          -35 callsubr
          hvcurveto
          hintmask 10111010
          39 31 44 55 22 vhcurveto
          298 vlineto
          121 -64 79 -133 -85 -82 -38 -32 -49 vhcurveto
          32 -56 rlineto
          28 45 62 30 63 hhcurveto
          94 33 -56 -66 2 hvcurveto
          hintmask 11011010
          -104 callsubr
          endchar
        </CharString>
        <CharString name="aogonek.a">
          -206 55 139 38 callsubr
          214 61 5 82 hintmask 11010101
          -107 callsubr
          8 -60 rlineto
          hintmask 11010110
          -43 -31 -38 -40 -54 vvcurveto
          -56 40 -29 51 25 34 12 15 19 vhcurveto
          -21 41 rlineto
          -8 -12 -13 -5 -15 hhcurveto
          -25 -22 15 31 hvcurveto
          hintmask 10101101
          39 28 37 59 29 vhcurveto
          486 -66 vlineto
          hintmask 11010101
          -100 callgsubr
          endchar
        </CharString>
        <CharString name="approxequal">
          149 62 23 62 68 62 23 62 hstemhm
          76 448 hintmask 01011000
          129 362 rmoveto
          69 23 27 18 31 57 42 -85 79 hhcurveto
          hintmask 01111000
          117 callgsubr
          85 -79 hhcurveto
          hintmask 01011000
          -51 -50 -32 -94 -35 hvcurveto
          53 -237 rmoveto
          69 23 27 17 31 57 42 -85 79 hhcurveto
          hintmask 11011000
          51 50 32 93 35 hvcurveto
          -53 24 rlineto
          -71 -23 -27 -16 -31 -57 -42 85 -79 hhcurveto
          hintmask 01011000
          -51 -50 -31 -95 -35 hvcurveto
          endchar
        </CharString>
        <CharString name="aring">
          -52 callsubr
          44 37 111 37 hstemhm
          81 80 59 45 97 45 26 82 hintmask 1011111010000000
          -98 callsubr
          hintmask 0111111010000000
          -104 callgsubr
          hintmask 1011111010000000
          -104 callsubr
          hintmask 1011111110000000
          153 410 rmoveto
          54 39 37 56 55 -39 37 -54 -55 -39 -37 -55 -56 39 -37 55 hvcurveto
          37 vmoveto
          -27 -22 22 34 33 22 22 27 26 22 -22 -33 -34 -22 -22 -26 hvcurveto
          endchar
        </CharString>
        <CharString name="aring.a">
          -76 callgsubr
          76 37 111 37 hstemhm
          60 85 69 45 96 46 24 82 hintmask 1010111101000000
          -107 callsubr
          hintmask 0101111101000000
          -78 callgsubr
          hintmask 1010111101000000
          -100 callgsubr
          hintmask 1010111111000000
          247 300 rmoveto
          54 40 37 56 55 -40 -26 callgsubr
        </CharString>
        <CharString name="arrowdown">
          -25 552 hstem
          266 68 vstem
          302 -25 rmoveto
          265 273 -46 42 -187 -201 rlineto
          438 -68 -438 vlineto
          -187 201 -46 -42 265 -273 rlineto
          endchar
        </CharString>
        <CharString name="arrowup">
          -25 552 hstem
          266 68 vstem
          298 527 rmoveto
          -265 -272 46 -42 187 201 rlineto
          -439 68 439 vlineto
          187 -201 46 42 -265 272 rlineto
          endchar
        </CharString>
        <CharString name="asciicircum">
          593 77 hstem
          111 378 vstem
          111 284 rmoveto
          72 hlineto
          66 176 49 133 rlineto
          4 hlineto
          49 -133 66 -176 rlineto
          72 hlineto
          -153 386 rlineto
          -72 hlineto
          endchar
        </CharString>
        <CharString name="asciitilde">
          257 62 22 62 hstemhm
          76 448 hintmask 01100000
          129 255 rmoveto
          69 23 27 17 31 57 42 -84 79 hhcurveto
          hintmask 11100000
          117 callgsubr
          84 -79 hhcurveto
          hintmask 01100000
          -51 -50 -31 -94 -35 hvcurveto
          endchar
        </CharString>
        <CharString name="asterisk">
          111 445 hstem
          271.5 57 vstem
          180 111 rmoveto
          120 159 120 -159 42 30 -108 165 162 70 -16 46 -167 -55 -9 189 rlineto
          -48 hlineto
          -9 -189 -167 55 -16 -46 162 -70 -108 -165 rlineto
          endchar
        </CharString>
        <CharString name="asterisk.a">
          316 396 hstem
          271.5 57 vstem
          197 316 rmoveto
          103 140 103 -140 42 29 -92 147 143 57 -16 46 -147 -42 -9 159 rlineto
          -48 hlineto
          -9 -161 -147 44 -16 -46 143 -57 -92 -147 rlineto
          endchar
        </CharString>
        <CharString name="at">
          -144 55 177 58 434 143 callsubr
          397 rmoveto
          135 -65 103 -138 -165 -129 -130 -255 -257 134 -137 158 66 53 19 36 134 callsubr
          122 214 221 107 112 120 105 44 -80 -96 hvcurveto
          -14 vlineto
          -170 -21 -94 -48 -102 vvcurveto
          -81 58 -50 71 52 51 33 37 169 callgsubr
          121 rmoveto
          61 54 35 138 19 155 callsubr
          28 47 hvcurveto
          endchar
        </CharString>
        <CharString name="at.case">
          -18 55 124 58 394 143 callsubr
          463 rmoveto
          113 -64 92 -136 -166 -131 -116 -229 -223 134 -118 158 66 53 20 35 134 callsubr
          103 180 195 109 98 121 102 44 -65 -75 hvcurveto
          -10 vlineto
          -170 -21 -94 -49 -101 vvcurveto
          -81 58 -50 71 52 51 32 38 169 callgsubr
          120 rmoveto
          62 54 34 138 20 155 callsubr
          27 47 hvcurveto
          endchar
        </CharString>
        <CharString name="atilde">
          -52 callsubr
          81 165 callsubr
          81 80 11 47 189 47 -22 82 hintmask 1010110010000000
          -98 callsubr
          hintmask 0110110010000000
          -104 callgsubr
          hintmask 1010110010000000
          -104 callsubr
          hintmask 1010111100000000
          11 447 39 callgsubr
          49 hhcurveto
          hintmask 1011011100000000
          53 10 callsubr
          -48 hhcurveto
          hintmask 1010111100000000
          -54 97 callsubr
        </CharString>
        <CharString name="atilde.a">
          -76 callgsubr
          113 165 callsubr
          60 85 21 46 190 47 -24 82 hintmask 1010011001000000
          -107 callsubr
          hintmask 0101011001000000
          -78 callgsubr
          hintmask 1010011001000000
          -100 callgsubr
          hintmask 1010011110000000
          106 337 143 callgsubr
          hintmask 1010101110000000
          100 callgsubr
          hintmask 1010011110000000
          -53 97 callsubr
        </CharString>
        <CharString name="b">
          -12 110 callsubr
          93 82 280 85 hintmask 01111100
          93 hmoveto
          66 hlineto
          hintmask 10111100
          135 callgsubr
          97 166 150 -71 97 -131 -57 -62 -29 -45 -46 hvcurveto
          2 94 rlineto
          194 -82 vlineto
          82 -598 rmoveto
          108 callsubr
          -85 -35 -51 16 41 -46 hvcurveto
          endchar
        </CharString>
        <CharString name="b.sups">
          252 53 232 53 hstem
          172 64 170 66 vstem
          172 260 rmoveto
          50 hlineto
          7 32 rlineto
          1 hlineto
          -25 30 35 -15 188 callgsubr
          -87 -37 -37 -18 -25 -30 hvcurveto
          2 56 rlineto
          125 -64 vlineto
          64 -393 rmoveto
          162 vlineto
          27 30 28 93 callsubr
        </CharString>
        <CharString name="backslash">
          -160 870 hstem
          99 402 vstem
          427 -160 rmoveto
          74 hlineto
          -328 870 rlineto
          -74 hlineto
          endchar
        </CharString>
        <CharString name="bar">
          166 callsubr
          -250 rmoveto
          74 1000 -74 hlineto
          endchar
        </CharString>
        <CharString name="braceleft">
          191 callgsubr
          120 121 15 76 hintmask 11101000
          256 -19 rmoveto
          -103 59 -30 126 vhcurveto
          61 48 -52 hlineto
          -102 -22 25 65 hvcurveto
          61 6 52 68 vvcurveto
          65 -22 32 -69 12 vhcurveto
          4 vlineto
          69 12 22 32 65 62 -6 62 57 vvcurveto
          65 22 25 102 vhcurveto
          52 48 -61 hlineto
          -126 -59 -30 -103 hvcurveto
          -69 9 -61 -63 vvcurveto
          hintmask 11111000
          -39 -27 -38 -118 -1 vhcurveto
          -52 vlineto
          hintmask 11101000
          118 -1 27 -38 -39 -67 -9 -53 -73 vvcurveto
          endchar
        </CharString>
        <CharString name="braceright">
          191 callgsubr
          269 75 15 121 hintmask 11110000
          99 -104 rmoveto
          -48 61 vlineto
          125 59 30 103 hvcurveto
          73 -9 53 67 vvcurveto
          hintmask 11111000
          39 27 38 118 1 vhcurveto
          52 vlineto
          hintmask 11110000
          -118 1 -27 38 39 63 9 61 69 vvcurveto
          103 -59 30 -125 vhcurveto
          -61 -48 51 hlineto
          102 23 -25 -65 hvcurveto
          -57 -6 -62 -62 vvcurveto
          -65 21 -32 69 -12 vhcurveto
          -4 vlineto
          -69 -12 -21 -32 -65 -68 6 -52 -61 vvcurveto
          -65 -23 -25 -102 vhcurveto
          endchar
        </CharString>
        <CharString name="bracketleft">
          -152 48 764 48 hstem
          226 65 vstem
          226 -152 rmoveto
          276 48 -211 764 211 48 -276 hlineto
          endchar
        </CharString>
        <CharString name="bracketright">
          -152 48 764 48 hstem
          309 66 vstem
          99 -104 rmoveto
          -48 276 860 -276 -48 210 -764 vlineto
          endchar
        </CharString>
        <CharString name="breve">
          575 51 hstem
          170 51 158 51 vstem
          300 575 rmoveto
          88 37 71 63 5 -56 callgsubr
          endchar
        </CharString>
        <CharString name="brokenbar">
          166 callsubr
          291 rmoveto
          74 459 -74 hlineto
          -536 vmoveto
          -464 74 464 vlineto
          endchar
        </CharString>
        <CharString name="bullet">
          115 294 hstem
          151 298 vstem
          300 115 rmoveto
          79 70 59 88 88 -70 59 -79 -79 -70 -59 -88 -88 70 -59 79 hvcurveto
          endchar
        </CharString>
        <CharString name="c">
          -14 callsubr
          hstem
          80 85 vstem
          -95 callsubr
          endchar
        </CharString>
        <CharString name="c.sups">
          252 52 234 52 hstem
          181 65 vstem
          181 421 rmoveto
          -107 71 -62 94 42 41 16 26 32 vhcurveto
          -27 41 rlineto
          -17 -22 -27 -14 -33 hhcurveto
          -63 -43 47 70 69 45 48 63 26 22 -10 -17 20 hvcurveto
          32 41 rlineto
          21 -24 -33 17 -46 hhcurveto
          -90 -80 -62 -107 hvcurveto
          endchar
        </CharString>
        <CharString name="cacute">
          105 callgsubr
          hstem
          80 85 vstem
          -95 callsubr
          378 479 -19 callgsubr
          endchar
        </CharString>
        <CharString name="caron">
          17 callsubr
        </CharString>
        <CharString name="ccaron">
          43 callgsubr
          51 callgsubr
          80 85 hintmask 11011000
          -95 callsubr
          228 331 rmoveto
          71 hlineto
          96 12 callsubr
        </CharString>
        <CharString name="ccedilla">
          -192 -21 202 67 374 68 hstem
          80 85 181 64 vstem
          369 -11 rmoveto
          64 5 59 27 47 43 -36 53 rcurveline
          -34 -41 -50 -27 -60 hhcurveto
          -112 -75 152 callsubr
          77 76 112 51 42 -21 -35 40 hvcurveto
          41 53 rlineto
          39 -40 -58 32 -79 hhcurveto
          -147 -124 -93 -163 -150 99 -91 136 -12 hvcurveto
          -33 -64 48 callgsubr
          -32 11 vhcurveto
          endchar
        </CharString>
        <CharString name="ccircumflex">
          105 callgsubr
          -49 49 hstemhm
          80 85 hintmask 11101000
          -95 callsubr
          131 331 -3 callgsubr
          -96 -6 callsubr
          -71 hlineto
          endchar
        </CharString>
        <CharString name="cdotaccent">
          -14 callsubr
          88 127 hstem
          80 85 112 132 vstem
          -95 callsubr
          263 344 -95 callgsubr
        </CharString>
        <CharString name="cedilla">
          176 callgsubr
          310 64 vstem
          247 -75 rmoveto
          41 -10 22 195 callsubr
          -36 -14 -52 -7 vhcurveto
          8 -41 rlineto
          75 7 69 27 58 vvcurveto
          41 -26 19 -33 11 vhcurveto
          26 53 rlineto
          -54 hlineto
          endchar
        </CharString>
        <CharString name="cent">
          70 68 344 68 hstem
          113 81 120 51 vstem
          314 142 rmoveto
          -75 17 -45 62 89 vvcurveto
          88 46 62 74 17 vhcurveto
          156 -292 rmoveto
          -28 -24 -35 -20 -42 -3 rrcurveto
          344 vlineto
          35 -2 30 -16 26 -24 40 52 rcurveline
          -31 29 -42 26 -58 3 rrcurveto
          103 -51 -106 vlineto
          -113 -15 -88 -84 -138 vvcurveto
          -141 82 -85 119 -13 vhcurveto
          -104 51 103 vlineto
          52 4 49 24 40 35 rrcurveto
          endchar
        </CharString>
        <CharString name="circumflex">
          17 callgsubr
        </CharString>
        <CharString name="colon">
          -12 169 189 114 callsubr
          431 rmoveto
          -51 36 180 callsubr
          51 50 -36 34 -45 -45 -36 -34 -50 vhcurveto
          -359 vmoveto
          92 callgsubr
        </CharString>
        <CharString name="colonmonetary">
          -11 66 -45 -21 31 -21 585 66 -5 -20 hstemhm
          96 85 142 38 -32 38 hintmask 10010101
          347 583 rmoveto
          1 6 6 0 6 hhcurveto
          14 13 -2 -3 13 hvcurveto
          -62 -524 -21 2 -19 5 -16 9 rlinecurve
          -35 26 rmoveto
          -46 44 -25 79 101 vvcurveto
          133 45 93 82 28 vhcurveto
          189 -450 rmoveto
          -35 -40 -35 -24 -46 -6 60 508 rcurveline
          17 -10 15 -13 15 -15 49 47 rcurveline
          hintmask 00110110
          -23 25 -30 23 -35 14 14 114 rcurveline
          -38 hlineto
          hintmask 00101110
          -12 -103 rlineto
          hintmask 00110110
          3 -14 -14 2 -15 -5 -5 0 -5 hhcurveto
          12 98 rlineto
          -38 hlineto
          hintmask 00101110
          -12 -103 rlineto
          -136 -24 -85 -120 -183 vvcurveto
          -150 56 -107 90 -47 vhcurveto
          hintmask 00101101
          -15 -124 rlineto
          38 hlineto
          13 109 18 -5 19 -4 20 -1 rlinecurve
          hintmask 01001101
          -12 -99 rlineto
          38 hlineto
          12 99 72 5 55 34 46 53 rlinecurve
          endchar
        </CharString>
        <CharString name="comma">
          4 151 hstem
          323 73 vstem
          220 -213 rmoveto
          16 callsubr
        </CharString>
        <CharString name="comma.dnom">
          -1 104 callgsubr
          -116 -32 callgsubr
        </CharString>
        <CharString name="comma.numr">
          266 104 callgsubr
          151 rmoveto
          59 21 37 49 59 vvcurveto
          48 -20 26 -34 -25 -22 -18 -28 -28 23 -14 23 2 3 0 1 2 vhcurveto
          -39 -25 -26 -39 -15 vhcurveto
          endchar
        </CharString>
        <CharString name="comma.subs">
          -171 104 callgsubr
          -286 -32 callgsubr
        </CharString>
        <CharString name="comma.sups">
          439 104 callgsubr
          324 -32 callgsubr
        </CharString>
        <CharString name="copyright">
          -11 42 94 55 277 55 100 41 hstem
          30 46 70 66 312 46 vstem
          30 323 -35 callgsubr
          70 hmoveto
          -124 72 -74 90 50 33 20 27 30 vhcurveto
          -30 42 rlineto
          -19 -23 -23 -15 -35 hhcurveto
          -59 -39 55 88 78 41 56 61 27 19 -12 -19 21 hvcurveto
          34 39 rlineto
          27 -26 -31 20 -47 hhcurveto
          -87 -78 -73 -116 hvcurveto
          endchar
        </CharString>
        <CharString name="currency">
          134 61 268 61 hstem
          106 76 236 76 vstem
          102 83 rmoveto
          87 89 rlineto
          -25 32 38 -13 41 hhcurveto
          40 39 13 25 31 hvcurveto
          88 -89 44 45 -84 85 rlineto
          22 31 14 39 46 vvcurveto
          46 -13 40 -23 31 vhcurveto
          84 86 -44 45 -87 -90 rlineto
          24 -32 -39 13 -40 hhcurveto
          -41 -39 -13 -24 -31 hvcurveto
          -87 90 -44 -45 83 -86 rlineto
          -22 -31 -13 -40 -46 vvcurveto
          -46 13 -39 23 -31 vhcurveto
          -84 -85 rlineto
          124 201 rmoveto
          80 53 54 65 65 53 -54 -80 -80 -53 -54 -65 -65 -53 54 80 vhcurveto
          endchar
        </CharString>
        <CharString name="d">
          -12 74 callsubr
          280 82 hintmask 10111100
          60 -2 callgsubr
          hintmask 01111100
          -12 callgsubr
          hintmask 10111100
          -81 callsubr
          endchar
        </CharString>
        <CharString name="d.sups">
          14 callsubr
          137 421 rmoveto
          -107 55 -62 84 39 37 20 25 26 vhcurveto
          2 hlineto
          5 -37 rlineto
          53 468 -64 -121 hlineto
          2 -54 rlineto
          23 -28 -26 14 16 callgsubr
        </CharString>
        <CharString name="dagger">
          488.5 66 133 callgsubr
          265 -80 rmoveto
          70 hlineto
          -5 571 143 -5 61 callsubr
          5 rlineto
          endchar
        </CharString>
        <CharString name="daggerdbl">
          77.5 65 347 65 133 callgsubr
          127 75 rmoveto
          143 5 -5 -160 rlineto
          70 hlineto
          -5 160 143 -5 rlineto
          71 vlineto
          -143 -7 5 177 -5 177 143 -7 61 callsubr
          7 -5 -177 5 -177 -143 7 rlineto
          endchar
        </CharString>
        <CharString name="dcaron">
          -12 -51 callgsubr
          50 164 -164 212 hstemhm
          50 85 280 82 42 49 hintmask 10110111
          50 -2 callgsubr
          hintmask 01110111
          -12 callgsubr
          hintmask 10110111
          -81 callsubr
          446 305 rmoveto
          hintmask 10101111
          14 155 1 57 rlineto
          -59 hlineto
          hintmask 10110111
          4 -212 rlineto
          endchar
        </CharString>
        <CharString name="dcroat">
          -12 69 -36 -21 409 69 93 48 -48 141 106 callgsubr
          hintmask 10110110
          425 130 rmoveto
          -48 -43 -46 -25 -48 hhcurveto
          -90 -53 66 110 104 68 72 85 41 42 -16 -41 44 hvcurveto
          154 267 rmoveto
          -72 hlineto
          hintmask 10101110
          93 -82 vlineto
          hintmask 10110110
          -93 -174 -48 174 -66 vlineto
          3 -90 rlineto
          39 -45 -43 24 -59 hhcurveto
          -115 -106 -94 -152 -156 84 -88 127 60 58 35 41 40 hvcurveto
          3 hlineto
          hintmask 01110110
          7 -64 rlineto
          68 571 hlineto
          72 5 rlineto
          endchar
        </CharString>
        <CharString name="degree">
          429 46 164 46 hstem
          175 50 151 50 vstem
          300 429 rmoveto
          67 59 50 77 79 -59 50 -67 -67 -58 -50 -79 -77 58 -50 67 hvcurveto
          46 vmoveto
          -44 -31 34 47 49 31 34 44 45 31 -34 -49 -47 -31 -34 -45 hvcurveto
          endchar
        </CharString>
        <CharString name="dieresis">
          588 110 hstem
          150 108 84 108 vstem
          204 588 -47 callgsubr
        </CharString>
        <CharString name="divide">
          96 107 96 62 95 107 hstem
          246 108 vstem
          300 456 rmoveto
          156 callgsubr
          -32 23 -22 31 hvcurveto
          -54 -306 rmoveto
          -32 23 -22 31 156 callgsubr
          vhcurveto
          -161 149 rmoveto
          44 callgsubr
          endchar
        </CharString>
        <CharString name="dollar">
          35 67 448 67 hstem
          114 80 82 60 95 81 vstem
          495 541 rmoveto
          -40 39 -46 31 -73 6 rrcurveto
          131 -60 -132 vlineto
          -97 -10 -65 -57 -84 -174 317 22 -124 vvcurveto
          -51 -42 -36 -79 -75 -61 32 36 -50 vhcurveto
          -39 -57 46 -39 71 -33 74 -6 rlinecurve
          -145 60 146 vlineto
          105 11 71 62 86 183 -318 -21 110 vvcurveto
          51 43 32 67 67 35 -22 -35 45 vhcurveto
          endchar
        </CharString>
        <CharString name="dollar.a">
          34 68 448 68 hstem
          110 80 245 80 vstem
          327 287 rmoveto
          60 -24 48 -26 -48 vvcurveto
          -51 -43 -36 -78 -7 -7 0 1 -7 vhcurveto
          -5 280 rmoveto
          -55 21 -43 23 40 vvcurveto
          51 43 32 67 6 7 0 -1 6 vhcurveto
          55 -11 rmoveto
          27 -9 23 -16 27 -20 44 48 rcurveline
          -30 29 -34 24 -44 13 25 137 rcurveline
          -56 7 -25 -134 rlineto
          1 -8 -8 0 -9 hhcurveto
          -114 -82 -59 -94 -87 82 -38 82 -32 hvcurveto
          -36 -195 -43 12 -38 22 -33 23 rlinecurve
          -39 -57 35 -29 50 -26 55 -14 rlinecurve
          -28 -151 56 -6 27 -6 callsubr
          -1 8 8 0 8 hhcurveto
          125 86 65 96 96 -89 40 -85 32 hvcurveto
          endchar
        </CharString>
        <CharString name="dong">
          0 49 61 59 249 60 71 49 hstem
          109 73 215 71 vstem
          121 hmoveto
          378 49 -378 hlineto
          276 173 rmoveto
          -37 -35 -34 -16 -37 hhcurveto
          -69 -40 49 82 67 51 51 62 40 26 -12 -29 36 hvcurveto
          71 221 rmoveto
          67 -71 -67 -155 -49 155 -34 vlineto
          4 -83 rlineto
          29 -35 -31 17 -52 hhcurveto
          -89 -85 -69 -110 -122 66 -67 101 52 41 23 30 31 hvcurveto
          4 hlineto
          6 -43 rlineto
          58 429 hlineto
          78 5 rlineto
          44 vlineto
          endchar
        </CharString>
        <CharString name="dotaccent">
          586 183 callsubr
          586 rmoveto
          -88 callgsubr
        </CharString>
        <CharString name="dotlessi">
          51 callsubr
          hstem
          316 82 vstem
          -79 callgsubr
          endchar
        </CharString>
        <CharString name="e">
          -53 callgsubr
          hstem
          181 callsubr
          vstem
          -107 callgsubr
          endchar
        </CharString>
        <CharString name="e.sups">
          252 50 104 41 93 50 -81 callgsubr
          endchar
        </CharString>
        <CharString name="eacute">
          -53 callgsubr
          75 148 hstem
          181 callsubr
          vstem
          -107 callgsubr
          -32 439 50 callgsubr
        </CharString>
        <CharString name="eacute.sups">
          252 50 104 41 93 50 48 101 -81 callgsubr
          -2 292 rmoveto
          -68 hlineto
          -61 -101 rlineto
          48 hlineto
          endchar
        </CharString>
        <CharString name="ebreve">
          -53 callgsubr
          77 51 hstemhm
          69 85 31 51 157 52 16 76 hintmask 11111101
          -107 callgsubr
          -146 293 rmoveto
          hintmask 11111111
          88 37 71 63 5 hvcurveto
          -52 hlineto
          -43 -5 178 callsubr
          -25 40 43 -5 hvcurveto
          -51 hlineto
          hintmask 11111101
          160 callsubr
        </CharString>
        <CharString name="ecaron">
          -53 callgsubr
          75 49 -49 148 129 callgsubr
          hintmask 11101110
          -107 callgsubr
          -182 291 31 callgsubr
          -64 hlineto
          hintmask 11110110
          -66 -99 rlineto
          -4 hlineto
          hintmask 11101110
          -67 99 rlineto
          -64 hlineto
          endchar
        </CharString>
        <CharString name="ecircumflex">
          -53 callgsubr
          75 148 -49 49 129 callgsubr
          hintmask 11110110
          -107 callgsubr
          -279 291 rmoveto
          64 hlineto
          hintmask 11101110
          -11 callgsubr
          hintmask 11110110
          66 -99 rlineto
          64 22 callgsubr
        </CharString>
        <CharString name="edieresis">
          -53 callgsubr
          90 110 hstemhm
          69 85 11 107 85 108 -4 76 hintmask 11101001
          -107 callgsubr
          hintmask 11111110
          -243 306 rmoveto
          76 callsubr
          -22 -24 -31 -31 22 -24 31 hvcurveto
          193 hmoveto
          -47 callsubr
          endchar
        </CharString>
        <CharString name="edotaccent">
          -53 callgsubr
          88 127 hstem
          69 85 95 131 81 76 vstem
          -107 callgsubr
          -146 304 -87 callgsubr
        </CharString>
        <CharString name="egrave">
          -53 callgsubr
          75 148 hstem
          181 callsubr
          vstem
          -107 callgsubr
          -145 291 174 callgsubr
        </CharString>
        <CharString name="egrave.sups">
          252 50 104 41 93 50 48 101 -81 callgsubr
          -88 191 rmoveto
          49 hlineto
          -60 101 rlineto
          -69 hlineto
          endchar
        </CharString>
        <CharString name="eight">
          -78 callsubr
        </CharString>
        <CharString name="eight.dnom">
          -12 45 239 45 10 callgsubr
          80 -92 callsubr
        </CharString>
        <CharString name="eight.numr">
          321 44 239 46 10 callgsubr
          413 rmoveto
          23 17 22 30 14 vhcurveto
          45 -13 42 -12 -36 vvcurveto
          -27 -33 -19 -34 -37 -30 21 27 vhcurveto
          hintmask 11011000
          87 97 rmoveto
          -41 12 -34 14 28 vvcurveto
          23 22 17 33 36 20 -18 -24 -19 -10 -18 -26 -15 vhcurveto
          hintmask 11100100
          -145 -101 rmoveto
          -47 50 -41 75 71 54 38 50 44 -28 21 -35 16 vhcurveto
          4 vlineto
          hintmask 11011000
          26 14 27 20 38 vvcurveto
          48 -49 36 -66 -62 -52 -35 -49 -36 24 -18 30 -18 vhcurveto
          -4 vlineto
          hintmask 11100100
          -34 -17 -31 -23 -41 vvcurveto
          endchar
        </CharString>
        <CharString name="eight.onum">
          -78 callsubr
        </CharString>
        <CharString name="eight.subs">
          -182 45 239 45 10 callgsubr
          -90 -92 callsubr
        </CharString>
        <CharString name="eight.sups">
          428 45 239 45 10 callgsubr
          520 -92 callsubr
        </CharString>
        <CharString name="ellipsis">
          -12 150 hstem
          32 139 59 140 59 139 vstem
          32 63 rmoveto
          -44 31 -31 39 38 31 31 44 45 -31 30 -38 -39 -31 -30 -45 vhcurveto
          198 hmoveto
          -44 31 -31 39 39 31 31 44 45 -31 30 -39 -39 -31 -30 -45 vhcurveto
          199 hmoveto
          -44 31 -31 38 39 31 31 44 45 -31 30 -39 -38 -31 -30 -45 vhcurveto
          endchar
        </CharString>
        <CharString name="emacron">
          -53 callgsubr
          103 57 hstemhm
          69 85 38 245 24 76 hintmask 11111010
          -107 callgsubr
          hintmask 11111110
          -269 319 19 callgsubr
          endchar
        </CharString>
        <CharString name="emdash">
          87 callgsubr
        </CharString>
        <CharString name="endash">
          87 callsubr
        </CharString>
        <CharString name="eogonek">
          -206 55 139 -59 callsubr
          hstem
          69 85 186 60 61 76 vstem
          488 99 rmoveto
          -28 -45 -46 -17 -57 hhcurveto
          -106 -76 66 103 -4 hvcurveto
          380 hlineto
          2 12 1 18 17 vvcurveto
          137 -82 91 -139 -126 -121 -97 -159 -159 117 -95 144 26 21 1 11 29 vhcurveto
          -29 -24 -37 -45 -52 vvcurveto
          -56 39 9 callgsubr
          44 26 41 91 65 hvcurveto
          -364 237 rmoveto
          95 13 72 56 79 hhcurveto
          90 54 -54 -97 hvcurveto
          endchar
        </CharString>
        <CharString name="equal">
          192 62 152 62 hstem
          85 430 vstem
          85 406 rmoveto
          44 callgsubr
          -276 vmoveto
          44 callgsubr
          endchar
        </CharString>
        <CharString name="estimated">
          -12 20 308 18 306 20 hstem
          26 130 290 128 vstem
          164 68 rmoveto
          -4 6 -4 6 8 vvcurveto
          224 vlineto
          2 2 2 2 vhcurveto
          414 hlineto
          2 0 4 2 vvcurveto
          186 -123 150 -151 -151 -123 -150 -186 -186 123 -150 151 90 78 52 80 54 vhcurveto
          -38 hlineto
          -68 -46 -66 -44 -70 hhcurveto
          -54 -50 22 38 -34 hvcurveto
          -4 266 rmoveto
          -2 -2 2 4 hvcurveto
          220 vlineto
          7 4 9 4 6 vhcurveto
          36 34 50 22 54 hhcurveto
          50 50 -20 -34 34 hvcurveto
          6 -6 4 -8 -8 vvcurveto
          -224 vlineto
          -4 -2 -2 -4 vhcurveto
          endchar
        </CharString>
        <CharString name="eth">
          -12 68 327 64 265 -20 hstem
          60 77 320 79 vstem
          300 56 rmoveto
          -89 -74 66 100 92 56 69 107 52 57 -23 -62 47 hvcurveto
          1 -14 0 -15 -15 vvcurveto
          -116 -51 -82 -106 vhcurveto
          209 615 rmoveto
          -23 41 -135 -69 -45 34 -50 28 -53 25 rlinecurve
          -38 -52 45 -22 40 -22 35 -25 rlinecurve
          -132 -68 23 -41 150 77 61 -53 42 -66 18 -91 rlinecurve
          50 -37 -60 30 -62 hhcurveto
          -132 -96 -89 -136 -145 112 -89 126 146 92 109 160 161 -58 111 -88 81 hvcurveto
          endchar
        </CharString>
        <CharString name="exclam">
          -12 154 -133 -21 hstemhm
          227 146 -106 66 hintmask 01010000
          272 232 rmoveto
          56 hlineto
          10 344 2 94 rlineto
          -80 hlineto
          2 -94 rlineto
          hintmask 01100000
          -35 -510 187 callsubr
          hintmask 10100000
          47 -33 29 -40 vhcurveto
          hintmask 01100000
          -40 -33 -29 -47 hvcurveto
          endchar
        </CharString>
        <CharString name="exclamdown">
          344 154 0 -20 hstemhm
          227 146 -106 66 hintmask 01010000
          328 254 rmoveto
          -56 hlineto
          -10 -344 -2 -94 rlineto
          80 hlineto
          -2 94 rlineto
          hintmask 01100000
          35 511 rmoveto
          47 -33 30 -40 -40 -33 -30 -47 vhcurveto
          hintmask 10100000
          -48 33 -29 40 vhcurveto
          hintmask 01100000
          40 33 29 48 hvcurveto
          endchar
        </CharString>
        <CharString name="f">
          51 callsubr
          171 67 hstem
          242 81 vstem
          578 696 rmoveto
          19 -46 -46 9 -48 hhcurveto
          -134 -62 -78 -119 hvcurveto
          -41 vlineto
          -139 -5 rlineto
          -62 139 -419 81 419 204 67 -204 44 vlineto
          79 36 48 87 42 31 -5 -18 40 vhcurveto
          endchar
        </CharString>
        <CharString name="f.sups">
          531 51 104 50 hstem
          277 63 vstem
          503 720 rmoveto
          10 -29 -30 6 -33 hhcurveto
          -92 -42 -52 -77 hvcurveto
          -25 vlineto
          -79 -3 rlineto
          -48 79 -271 63 271 128 51 -128 27 vlineto
          46 23 31 55 26 22 -5 -9 23 vhcurveto
          endchar
        </CharString>
        <CharString name="fi">
          51 callsubr
          100 128 -57 67 hstemhm
          118 82 187 135 -108 82 hintmask 11011010
          118 90 callsubr
          23 32 46 17 19 -4 -8 19 vhcurveto
          17 146 callgsubr
          296 -563 rmoveto
          82 486 -82 hlineto
          hintmask 11101100
          41 228 rmoveto
          -38 -30 -26 -38 -38 30 -26 38 38 29 26 38 38 -29 26 -38 hvcurveto
          endchar
        </CharString>
        <CharString name="figuredash">
          87 callsubr
        </CharString>
        <CharString name="five">
          -12 68 286 62 163 71 hstem
          439 83 vstem
          56 75 rmoveto
          -44 191 callsubr
          78 138 138 -97 62 -122 -49 -32 -10 -16 -37 hvcurveto
          17 189 rlineto
          288 71 -361 hlineto
          -21 -307 158 callsubr
          -88 -89 -72 -57 -90 -86 -52 35 38 -42 hvcurveto
          endchar
        </CharString>
        <CharString name="five.dnom">
          -12 64 callgsubr
          42 -72 callgsubr
        </CharString>
        <CharString name="five.numr">
          321 49 116 40 57 55 hstem
          362 63 vstem
          172 2 callsubr
          41 26 -21 -37 -36 -28 -22 -38 -40 -29 20 24 -23 hvcurveto
          endchar
        </CharString>
        <CharString name="five.onum">
          -86 69 291 62 167 71 hstem
          118.5 75 245.5 83 vstem
          56 2 rmoveto
          -45 191 callsubr
          80 140 141 -97 61 -122 -49 -32 -9 -17 -37 hvcurveto
          17 193 rlineto
          288 71 -361 hlineto
          -21 -311 158 callsubr
          -90 -92 -72 -57 -90 -86 -52 35 37 -42 hvcurveto
          endchar
        </CharString>
        <CharString name="five.subs">
          -182 64 callgsubr
          -128 -72 callgsubr
        </CharString>
        <CharString name="five.sups">
          428 64 callgsubr
          482 -72 callgsubr
        </CharString>
        <CharString name="fiveeighths">
          -12 45 239 45 4 49 116 40 57 55 hstemhm
          228 63 18 59 -47 59 111 59 -48 58 hintmask 0011110000000000
          38 2 callsubr
          40 27 -21 -37 -36 -28 -22 -38 -41 -28 20 24 -23 hvcurveto
          7 -382 -94 callgsubr
          hintmask 1000001001000000
          -44 callsubr
          hintmask 0100000110000000
          -34 callgsubr
          hintmask 1000001001000000
          -15 callsubr
          hintmask 0100000110000000
          25 14 28 21 37 vvcurveto
          49 -49 35 -66 -62 -52 -35 -49 -36 24 -18 30 -18 vhcurveto
          -4 vlineto
          hintmask 1000001001000000
          -34 -16 -32 -23 -42 vvcurveto
          endchar
        </CharString>
        <CharString name="fl">
          -12 68 -35 131 callsubr
          171 67 -12 -20 hstemhm
          123 82 196 82 hintmask 01110110
          123 90 callsubr
          22 32 46 18 19 -4 -8 18 vhcurveto
          18 146 callgsubr
          hintmask 10101110
          401 -505 rmoveto
          -2 -9 -4 0 -5 hhcurveto
          -12 -11 10 26 hvcurveto
          620 -82 -614 vlineto
          -71 25 -39 62 21 14 3 5 12 vhcurveto
          endchar
        </CharString>
        <CharString name="four">
          21 -21 176 66 311 85 hstem
          368 78 vstem
          130 -4 callgsubr
          173 218 21 31 24 31 20 31 190 callgsubr
          -198 vlineto
          177 hmoveto
          -99 396 -88 hlineto
          -319 -407 rlineto
          -55 329 -176 78 176 99 vlineto
          endchar
        </CharString>
        <CharString name="four.dnom">
          73 96 callgsubr
          116 -38 callgsubr
        </CharString>
        <CharString name="four.numr">
          406 42 138 52 hstem
          334 57 vstem
          236 448 rmoveto
          54 74 45 64 rlineto
          3 hlineto
          -4 -82 rlineto
          -56 vlineto
          107 hmoveto
          -50 190 -71 hlineto
          -148 -201 rlineto
          -31 162 -73 57 73 50 vlineto
          endchar
        </CharString>
        <CharString name="four.onum">
          94 67 328 85 hstem
          368 78 vstem
          129 161 rmoveto
          175 231 21 31 23 33 20 33 190 callgsubr
          -215 vlineto
          177 hmoveto
          -99 413 -88 hlineto
          -319 -425 rlineto
          -55 329 -168 78 168 99 vlineto
          endchar
        </CharString>
        <CharString name="four.subs">
          -97 96 callgsubr
          -54 -38 callgsubr
        </CharString>
        <CharString name="four.sups">
          513 96 callgsubr
          556 -38 callgsubr
        </CharString>
        <CharString name="fraction">
          32 592 hstem
          28 544 vstem
          77 32 -94 callgsubr
          endchar
        </CharString>
        <CharString name="g">
          -67 callsubr
          30 callsubr
          232 76 6 81 hintmask 1011101001000000
          -20 callsubr
          hintmask 1101100100100000
          -73 callgsubr
          hintmask 1011101001000000
          -55 callsubr
          hintmask 1101100010100000
          -91 callgsubr
          hintmask 1101100101000000
          -66 callgsubr
          hintmask 1101010101000000
          -73 callsubr
          hintmask 1011100011000000
          -55 callgsubr
          hintmask 1011101001000000
          57 callgsubr
          hintmask 1101010101000000
          -83 callsubr
          endchar
        </CharString>
        <CharString name="g.a">
          -42 callsubr
          hstemhm
          60 84 281 82 hintmask 11101100
          -85 callsubr
          hintmask 11011100
          505 -66 vlineto
          hintmask 11101100
          -103 callsubr
          endchar
        </CharString>
        <CharString name="g.supa">
          121 50 93 52 221 53 hstem
          137 65 172 64 vstem
          183 200 rmoveto
          -23 -44 rlineto
          -23 36 46 -12 41 hhcurveto
          98 57 47 80 hvcurveto
          334 -53 vlineto
          -6 -30 rlineto
          -1 hlineto
          25 -29 -29 13 -37 hhcurveto
          -75 -71 -64 -100 -100 55 -62 84 39 35 18 23 25 hvcurveto
          -1 -56 rlineto
          -48 -1 -30 -30 -60 hhcurveto
          -31 -36 8 21 -33 hvcurveto
          108 116 rmoveto
          -55 -34 43 68 66 41 44 51 26 27 -8 -23 27 hvcurveto
          -148 vlineto
          -28 -27 -26 -14 -30 hhcurveto
          endchar
        </CharString>
        <CharString name="g.sups">
          114 43 96 52 57 42 130 48 -36 44 hstemhm
          149 54 -36 61 -59 53 144 57 -2 61 hintmask 1111010001000000
          203 210 rmoveto
          16 10 17 28 15 vhcurveto
          -4 14 15 -1 20 hhcurveto
          59 hlineto
          47 25 -8 -28 -30 -46 -30 -71 -66 -35 21 32 hvcurveto
          -54 -8 rmoveto
          -57 56 -31 93 113 71 51 63 54 -41 23 -85 vhcurveto
          hintmask 1111000110000000
          -71 hlineto
          -42 -21 10 24 14 8 11 14 9 hvcurveto
          -7 19 17 -4 17 hhcurveto
          71 55 40 71 25 -11 22 -14 14 hvcurveto
          82 48 -134 hlineto
          6 -14 -17 2 -18 hhcurveto
          hintmask 1111001010000000
          -71 -59 -44 -72 -38 19 -28 22 -17 hvcurveto
          -3 vlineto
          hintmask 1111000110000000
          -24 -16 -15 -23 -21 vvcurveto
          -27 16 -17 17 -9 vhcurveto
          -3 vlineto
          hintmask 1111010001000000
          -34 -19 -19 -26 -25 vvcurveto
          hintmask 1110101010000000
          148 202 rmoveto
          -39 -30 27 43 43 30 29 39 38 31 -29 -43 -43 -31 -27 -38 hvcurveto
          endchar
        </CharString>
        <CharString name="gbreve">
          -67 callsubr
          77 51 30 callsubr
          6 51 158 51 -34 76 6 81 hintmask 1011101100001000
          -20 callsubr
          hintmask 1101101010000100
          -73 callgsubr
          hintmask 1011101100001000
          -55 callsubr
          hintmask 1101101001000100
          -91 callgsubr
          hintmask 1101101010001000
          -66 callgsubr
          hintmask 1101011010001000
          -73 callsubr
          hintmask 1011101001001000
          -55 callgsubr
          hintmask 1011101100001000
          57 callgsubr
          hintmask 1101011010001000
          -83 callsubr
          hintmask 1101101000110000
          16 366 89 callsubr
          -6 hvcurveto
          -51 hlineto
          -63 5 37 -71 88 hhcurveto
          endchar
        </CharString>
        <CharString name="gbreve.a">
          -42 callsubr
          109 51 hstemhm
          60 84 33 52 157 51 -12 82 hintmask 1110110010000000
          -85 callsubr
          hintmask 1101110010000000
          505 -66 vlineto
          hintmask 1110110010000000
          -103 callsubr
          hintmask 1110111100000000
          19 502 89 callsubr
          -5 hvcurveto
          -52 hlineto
          -63 5 37 -71 88 hhcurveto
          endchar
        </CharString>
        <CharString name="gcaron">
          -67 callsubr
          75 49 -49 148 30 callsubr
          232 76 6 81 hintmask 1011100110010000
          -20 callsubr
          hintmask 1101100101001000
          -73 callgsubr
          hintmask 1011100110010000
          -55 callsubr
          hintmask 1101100100101000
          -91 callgsubr
          hintmask 1101100101010000
          -66 callgsubr
          hintmask 1101010101010000
          -73 callsubr
          hintmask 1011100100110000
          -55 callgsubr
          hintmask 1011100110010000
          57 callgsubr
          hintmask 1101010101010000
          -83 callsubr
          -19 364 31 callgsubr
          -64 hlineto
          hintmask 1101101001010000
          37 callgsubr
          hintmask 1101100101010000
          22 callsubr
        </CharString>
        <CharString name="gcaron.a">
          -42 callsubr
          107 51 callgsubr
          60 84 281 82 hintmask 11100111
          -85 callsubr
          hintmask 11010111
          505 -66 vlineto
          hintmask 11100111
          -103 callsubr
          -16 500 31 callgsubr
          -64 hlineto
          hintmask 11101011
          37 callgsubr
          hintmask 11100111
          -66 99 rlineto
          -64 hlineto
          endchar
        </CharString>
        <CharString name="gcircumflex">
          -67 callsubr
          75 148 -49 49 30 callsubr
          232 76 6 81 hintmask 1011101010010000
          -20 callsubr
          hintmask 1101101001001000
          -73 callgsubr
          hintmask 1011101010010000
          -55 callsubr
          hintmask 1101101000101000
          -91 callgsubr
          hintmask 1101101001010000
          -66 callgsubr
          hintmask 1101011001010000
          -73 callsubr
          hintmask 1011101000110000
          -55 callgsubr
          hintmask 1011101010010000
          57 callgsubr
          hintmask 1101011001010000
          -83 callsubr
          -116 364 rmoveto
          63 hlineto
          hintmask 1101100101010000
          -11 callgsubr
          hintmask 1101101001010000
          67 -99 rlineto
          64 22 callgsubr
        </CharString>
        <CharString name="gcircumflex.a">
          -42 callsubr
          107 178 callgsubr
          60 84 281 82 hintmask 11101011
          -85 callsubr
          hintmask 11011011
          505 -66 vlineto
          hintmask 11101011
          -103 callsubr
          -113 500 rmoveto
          64 hlineto
          hintmask 11100111
          66 99 rlineto
          4 hlineto
          hintmask 11101011
          67 -99 rlineto
          64 22 callgsubr
        </CharString>
        <CharString name="gdotaccent">
          -67 callsubr
          88 127 30 callsubr
          71 131 30 -88 callsubr
          hintmask 1101101010110000
          16 377 -69 callgsubr
        </CharString>
        <CharString name="gdotaccent.a">
          -42 callsubr
          120 127 hstemhm
          60 84 98 131 52 82 hintmask 11101101
          -85 callsubr
          hintmask 11011101
          505 -66 vlineto
          hintmask 11101101
          -103 callsubr
          hintmask 11101111
          19 513 -69 callgsubr
        </CharString>
        <CharString name="germandbls">
          -12 64 -31 -21 657 67 hstemhm
          88 82 114 79 11 79 33 78 hintmask 01111110
          88 hmoveto
          82 507 hlineto
          99 45 51 73 55 31 -37 -49 vhcurveto
          -85 -90 -31 -91 vvcurveto
          hintmask 10111010
          -139 202 21 -116 vvcurveto
          -41 -31 -37 -56 -39 -33 13 26 -37 vhcurveto
          -33 -58 rlineto
          -28 42 46 -17 56 hhcurveto
          99 64 65 84 hvcurveto
          158 -201 -18 97 69 90 33 100 vvcurveto
          hintmask 10111110
          79 -58 69 -106 -125 -76 -82 -123 vhcurveto
          endchar
        </CharString>
        <CharString name="grave">
          83 callsubr
          185 180 vstem
          302 573 49 callsubr
        </CharString>
        <CharString name="greater">
          48 568 hstem
          408 72 vstem
          480 363 rmoveto
          -373 253 rlineto
          -79 vlineto
          301 -203 rlineto
          -4 vlineto
          -301 -203 rlineto
          -79 vlineto
          373 253 rlineto
          endchar
        </CharString>
        <CharString name="greaterequal">
          0 62 hstem
          430 85 vstem
          85 hmoveto
          44 callgsubr
          430 318 rmoveto
          -430 153 rlineto
          -71 vlineto
          210 -73 135 -44 rlineto
          -4 vlineto
          -135 -44 -210 -73 rlineto
          -71 vlineto
          430 153 rlineto
          endchar
        </CharString>
        <CharString name="guillemotleft">
          52 400 hstem
          82 65 165 65 vstem
          235 73 callsubr
          382 -160 rmoveto
          40 34 -127 166 127 165 -40 35 -152 -160 rlineto
          -80 vlineto
          endchar
        </CharString>
        <CharString name="guillemotright">
          52 400 hstem
          223 65 165 65 vstem
          96 86 rmoveto
          40 -34 152 160 rlineto
          80 vlineto
          -152 160 -40 -35 127 -165 rlineto
          103 -166 62 callsubr
        </CharString>
        <CharString name="guilsinglleft">
          52 400 hstem
          197 65 vstem
          350 73 callsubr
          endchar
        </CharString>
        <CharString name="guilsinglright">
          52 400 hstem
          338 65 vstem
          211 86 62 callsubr
        </CharString>
        <CharString name="h">
          21 177 callsubr
          hstem
          93 82 266 82 vstem
          -100 callsubr
          -52 vhcurveto
          4 115 rlineto
          194 -82 vlineto
          endchar
        </CharString>
        <CharString name="h.sups">
          11 callsubr
          -34 45 -75 -48 -36 -25 -31 -32 vhcurveto
          4 69 rlineto
          125 -64 vlineto
          endchar
        </CharString>
        <CharString name="hbar">
          21 -21 407 71 93 48 -48 141 hstemhm
          93 82 266 82 hintmask 11101100
          175 498 rmoveto
          73 212 48 -212 vlineto
          hintmask 11011100
          93 -82 vlineto
          hintmask 11101100
          -93 vlineto
          -73 -5 rlineto
          -43 73 -571 82 319 vlineto
          59 57 39 29 58 hhcurveto
          80 32 -44 -92 hvcurveto
          -271 82 282 vlineto
          128 -53 68 -115 -76 -56 -41 -54 -52 vhcurveto
          endchar
        </CharString>
        <CharString name="hcircumflex">
          21 177 callsubr
          57 111 hstem
          93 82 266 82 vstem
          -100 callsubr
          -52 vhcurveto
          4 115 rlineto
          194 -82 vlineto
          -17 37 26 callsubr
          67 hlineto
          -96 111 rlineto
          -79 hlineto
          -96 -111 rlineto
          endchar
        </CharString>
        <CharString name="hungarumlaut">
          571 143 hstem
          202 290 vstem
          202 571 5 callgsubr
        </CharString>
        <CharString name="hyphen">
          13 callgsubr
        </CharString>
        <CharString name="hyphen.a">
          71 callsubr
        </CharString>
        <CharString name="i">
          51 callsubr
          100 127 hstemhm
          282 132 -98 82 hintmask 11101000
          -79 callgsubr
          hintmask 11110000
          9 callsubr
          endchar
        </CharString>
        <CharString name="i.sups">
          531 51 63 91 hstemhm
          299 96 -79 64 hintmask 10010000
          175 531 rmoveto
          141 -271 64 322 -205 hlineto
          hintmask 11100000
          172 63 rmoveto
          28 20 17 28 27 -20 19 -28 -28 -20 -19 -27 -28 20 -17 28 hvcurveto
          endchar
        </CharString>
        <CharString name="iacute">
          51 callsubr
          87 148 hstem
          316 82 vstem
          -79 callgsubr
          372 72 callgsubr
        </CharString>
        <CharString name="icircumflex">
          51 callsubr
          87 178 callgsubr
          316 82 hintmask 11101000
          -79 callgsubr
          126 87 -3 callgsubr
          -97 148 rlineto
          -71 hlineto
          endchar
        </CharString>
        <CharString name="idieresis">
          51 callsubr
          102 110 hstemhm
          198 107 11 82 -8 108 hintmask 11101000
          -79 callgsubr
          hintmask 11110100
          161 102 rmoveto
          76 callsubr
          -22 -24 -31 -31 22 -24 31 hvcurveto
          193 hmoveto
          -47 callsubr
          endchar
        </CharString>
        <CharString name="igrave">
          51 callsubr
          87 148 hstem
          316 82 vstem
          -79 callgsubr
          260 87 49 callsubr
        </CharString>
        <CharString name="imacron">
          51 callsubr
          115 57 hstemhm
          225 245 -154 82 hintmask 11101000
          -79 callgsubr
          hintmask 11110000
          135 115 19 callgsubr
          endchar
        </CharString>
        <CharString name="infinity">
          150 79 -59 63 180 78 -47 63 hstemhm
          -4 65 478 65 hintmask 01011100
          130 170 rmoveto
          69 45 51 48 29 hvcurveto
          4 hlineto
          hintmask 10011100
          -82 51 48 -37 73 hhcurveto
          90 65 74 112 100 -65 71 -89 -72 -51 -47 -70 -41 hvcurveto
          -4 hlineto
          hintmask 01101100
          55 -30 -44 46 -66 hhcurveto
          -82 -64 -63 -104 hvcurveto
          hintmask 01011100
          -86 61 -68 73 vhcurveto
          hintmask 10011100
          183 170 rmoveto
          73 40 39 31 47 hhcurveto
          63 37 -47 -64 -57 -34 -47 -59 -51 -38 29 82 -44 hvcurveto
          hintmask 01101100
          -171 -107 rmoveto
          -45 -36 40 54 54 31 32 48 39 34 -27 -65 33 hvcurveto
          -57 -26 -35 -31 -43 hhcurveto
          endchar
        </CharString>
        <CharString name="integral">
          -158 65 818 64 hstemhm
          255 76 -34 75 hintmask 11010000
          195 -89 rmoveto
          -9 -62 rlineto
          -4 9 18 -3 20 hhcurveto
          115 24 98 131 hvcurveto
          hintmask 11100000
          148 -41 199 145 vvcurveto
          103 10 59 55 14 12 -2 -2 9 vhcurveto
          10 62 rlineto
          3 -8 -19 3 -20 hhcurveto
          -115 -24 -99 -129 hvcurveto
          hintmask 11010000
          -148 42 -200 -146 vvcurveto
          -104 -11 -56 -56 -14 -12 1 3 -9 vhcurveto
          endchar
        </CharString>
        <CharString name="iogonek">
          -206 55 172 131 callsubr
          100 127 hstemhm
          272 61 -51 132 -98 82 hintmask 11110010
          316 hmoveto
          hintmask 11111000
          19 hlineto
          -27 -28 -36 -39 -54 vvcurveto
          -56 40 9 callgsubr
          hvcurveto
          hintmask 11110010
          134 callgsubr
          hintmask 11110100
          32 167 -70 callsubr
        </CharString>
        <CharString name="iogonek.d">
          -206 55 172 131 callsubr
          hstemhm
          272 61 -17 82 hintmask 11101000
          316 hmoveto
          hintmask 11110000
          19 hlineto
          -27 -28 -36 -39 -54 vvcurveto
          -56 40 9 callgsubr
          hvcurveto
          hintmask 11101000
          134 callgsubr
          endchar
        </CharString>
        <CharString name="itilde">
          51 callsubr
          93 165 callsubr
          206 47 63 82 45 46 hintmask 11011110
          -79 callgsubr
          116 70 callsubr
          hintmask 11101110
          193 callgsubr
          hintmask 11011110
          82 callsubr
          endchar
        </CharString>
        <CharString name="j">
          -217 67 569 67 100 127 hstemhm
          282 132 -98 82 hintmask 11101000
          -49 callsubr
          hintmask 11110000
          9 callsubr
          endchar
        </CharString>
        <CharString name="j.sups">
          119 52 360 51 63 91 hstemhm
          287 97 -79 63 hintmask 11001000
          164 531 rmoveto
          141 -277 hlineto
          -53 -17 -30 -62 -20 -24 6 11 -22 vhcurveto
          -20 -46 rlineto
          -13 24 31 -10 34 hhcurveto
          108 31 60 79 hvcurveto
          324 -204 vlineto
          hintmask 11110000
          172 63 rmoveto
          27 21 17 28 27 -21 19 -27 -28 -21 -19 -27 -28 21 -17 28 hvcurveto
          endchar
        </CharString>
        <CharString name="jcircumflex">
          -217 67 569 67 87 178 callgsubr
          316 82 hintmask 11101000
          -49 callsubr
          126 87 -3 callgsubr
          -97 148 rlineto
          -71 hlineto
          endchar
        </CharString>
        <CharString name="k">
          21 -21 486 -20 246 -20 hstem
          106 82 vstem
          12 callgsubr
          endchar
        </CharString>
        <CharString name="k.sups">
          260 468 hstem
          189 64 vstem
          189 260 rmoveto
          64 85 hlineto
          70 67 107 -152 rlineto
          71 hlineto
          -140 194 124 128 rlineto
          -71 hlineto
          -159 -160 rlineto
          -2 306 -64 hlineto
          endchar
        </CharString>
        <CharString name="kgreenlandic">
          21 -21 486 -20 hstem
          106 82 vstem
          106 hmoveto
          82 130 hlineto
          115 110 179 -240 rlineto
          92 hlineto
          -220 293 194 193 rlineto
          -94 hlineto
          -263 -255 -3 -1 rlineto
          256 -82 vlineto
          endchar
        </CharString>
        <CharString name="l">
          -12 68 589 67 hstem
          247 82 vstem
          -94 callsubr
          endchar
        </CharString>
        <CharString name="l.sups">
          252 52 374 50 hstem
          277 64 vstem
          196 678 rmoveto
          81 -310 hlineto
          -74 33 -42 71 31 20 6 7 26 vhcurveto
          -12 50 rlineto
          -7 -21 -14 -4 -15 hhcurveto
          -35 -20 17 43 hvcurveto
          364 -145 vlineto
          endchar
        </CharString>
        <CharString name="lacute">
          -12 68 589 67 47 111 hstem
          247 82 vstem
          -94 callsubr
          326 158 rmoveto
          -94 hlineto
          -88 -111 rlineto
          69 hlineto
          endchar
        </CharString>
        <CharString name="lcaron">
          -12 68 492 212 -115 67 hstemhm
          247 82 71 49 hintmask 10111000
          -94 callsubr
          hintmask 11011000
          361 -164 46 callsubr
        </CharString>
        <CharString name="ldot">
          -12 68 227 127 235 67 hstem
          208 82 81 132 vstem
          42 645 rmoveto
          166 -482 hlineto
          -115 56 -60 103 53 34 13 16 44 vhcurveto
          -21 62 rlineto
          -16 -36 -28 -7 -27 hhcurveto
          -59 -37 30 71 hvcurveto
          555 -248 vlineto
          395 -429 -95 callgsubr
        </CharString>
        <CharString name="less">
          48 568 hstem
          120 72 vstem
          120 301 rmoveto
          373 -253 rlineto
          79 vlineto
          -301 203 rlineto
          4 vlineto
          301 203 rlineto
          79 vlineto
          -373 -253 rlineto
          endchar
        </CharString>
        <CharString name="lessequal">
          0 62 hstem
          85 85 vstem
          85 hmoveto
          44 callgsubr
          244 vmoveto
          430 -153 rlineto
          71 vlineto
          -210 73 -135 44 rlineto
          4 vlineto
          135 44 210 73 rlineto
          71 vlineto
          -430 -153 rlineto
          endchar
        </CharString>
        <CharString name="lira">
          0 71 164 49 59 49 189 69 hstemhm
          144 79 -21 73 hintmask 11110100
          171 callgsubr
          2 0 2 2 vvcurveto
          167 49 -173 hlineto
          -4 20 -7 20 -6 19 rrcurveto
          190 49 hlineto
          hintmask 11111000
          -206 hlineto
          -8 24 -5 23 25 46 callgsubr
          -25 6 -25 8 -24 hvcurveto
          -80 -4 rlineto
          -45 97 vlineto
          7 -20 8 -19 5 -20 rrcurveto
          -30 hlineto
          -87 -5 rlineto
          -44 vlineto
          hintmask 11110100
          124 hlineto
          -2 0 -1 -2 137 callsubr
        </CharString>
        <CharString name="logicalnot">
          299 62 hstem
          449 66 vstem
          85 299 rmoveto
          364 -195 66 257 -430 hlineto
          endchar
        </CharString>
        <CharString name="lozenge">
          -10 69 542 69 hstem
          98 404 vstem
          262 -10 rmoveto
          76 hlineto
          164 340 -164 340 rlineto
          -76 hlineto
          -164 -340 rlineto
          200 -271 rmoveto
          -63 133 -64 138 64 137 63 134 rlineto
          4 hlineto
          63 -134 64 -137 -64 -138 -63 -133 rlineto
          endchar
        </CharString>
        <CharString name="lslash">
          -12 68 589 67 hstem
          247 82 vstem
          516 79 rmoveto
          -16 -36 -28 -7 -28 hhcurveto
          -58 -37 30 71 hvcurveto
          217 vlineto
          163 91 rlineto
          71 vlineto
          -163 -91 rlineto
          267 -248 -67 166 -243 vlineto
          -124 -71 rlineto
          -70 vlineto
          124 71 rlineto
          -169 vlineto
          -115 56 -60 103 53 34 13 16 44 vhcurveto
          endchar
        </CharString>
        <CharString name="m">
          125 callsubr
          hstemhm
          60 79 136 66 136 79 cntrmask 00011100
          hintmask 11011100
          -33 callgsubr
          hintmask 10111100
          -7 64 rlineto
          -64 hlineto
          endchar
        </CharString>
        <CharString name="m.sups">
          536 54 hstem
          130 61 82 53 81 61 vstem
          130 260 rmoveto
          61 230 hlineto
          30 16 14 16 20 hhcurveto
          22 10 -17 -34 hvcurveto
          -225 53 230 vlineto
          30 14 15 16 21 hhcurveto
          22 9 -17 -34 hvcurveto
          -225 61 230 vlineto
          64 -26 36 -45 -36 -23 -22 -33 -17 vhcurveto
          37 -8 -21 18 -32 hhcurveto
          -37 -20 -21 -29 -16 hvcurveto
          -2 hlineto
          -5 42 rlineto
          -50 hlineto
          endchar
        </CharString>
        <CharString name="macron">
          7 callsubr
        </CharString>
        <CharString name="minus">
          13 callgsubr
        </CharString>
        <CharString name="multiply">
          126 407 hstem
          102 396 vstem
          146 126 rmoveto
          154 160 154 -160 44 45 -154 159 154 158 -44 45 -154 -159 -154 159 -44 -45 154 -158 -154 -159 rlineto
          endchar
        </CharString>
        <CharString name="n">
          21 80 callgsubr
          266 82 hintmask 11011000
          -100 callsubr
          -51 vhcurveto
          -4 hlineto
          hintmask 10111000
          115 callsubr
          endchar
        </CharString>
        <CharString name="n.sups">
          11 callsubr
          -35 45 -74 -49 -35 -25 -31 -31 vhcurveto
          -3 hlineto
          -5 48 rlineto
          -53 hlineto
          endchar
        </CharString>
        <CharString name="nacute">
          125 callsubr
          107 148 hstemhm
          93 82 266 82 hintmask 11011100
          -100 callsubr
          -51 vhcurveto
          -4 hlineto
          hintmask 10111100
          115 callsubr
          339 72 callgsubr
        </CharString>
        <CharString name="napostrophe">
          125 callsubr
          84 149 hstemhm
          82 67 47 82 237 83 hintmask 11011110
          6 -38 callsubr
          293 12 rmoveto
          hintmask 10111110
          -7 76 rlineto
          -68 -486 82 hlineto
          hintmask 11011110
          346 vlineto
          53 52 35 28 52 hhcurveto
          69 29 -42 -88 hvcurveto
          -297 83 308 vlineto
          124 -50 66 -105 -71 -50 -39 -49 -47 vhcurveto
          endchar
        </CharString>
        <CharString name="nbspace.frac">
          endchar
        </CharString>
        <CharString name="ncaron">
          125 callsubr
          107 51 callgsubr
          93 82 266 82 hintmask 11001110
          -100 callsubr
          -51 vhcurveto
          -4 hlineto
          hintmask 10101110
          115 callsubr
          189 182 callsubr
          hintmask 11010110
          37 callgsubr
          hintmask 11001110
          22 callsubr
        </CharString>
        <CharString name="nine">
          -12 68 192 62 275 192 callgsubr
          310 rmoveto
          -89 -47 48 87 84 59 56 76 94 57 -66 -124 13 hvcurveto
          -61 192 callsubr
          -38 42 58 -29 78 hhcurveto
          138 129 99 256 205 -106 102 -139 -113 -99 -83 -122 -131 80 -66 118 65 64 31 51 52 hvcurveto
          -204 -4 -89 -70 -101 hhcurveto
          -49 -46 20 31 -32 hvcurveto
          endchar
        </CharString>
        <CharString name="nine.dnom">
          -12 38 callgsubr
          213 -80 callsubr
        </CharString>
        <CharString name="nine.numr">
          321 49 81 42 107 50 hstem
          173 58 134 60 vstem
          231 546 rmoveto
          32 22 22 36 35 33 -22 -52 8 vhcurveto
          -24 -26 -23 -9 -26 hhcurveto
          -41 -18 22 31 hvcurveto
          -53 -193 rmoveto
          -19 25 29 -13 39 hhcurveto
          91 63 63 114 93 -59 59 -78 -67 -48 -47 -57 -57 34 -38 68 35 30 13 20 25 hvcurveto
          -75 -5 -36 -39 -55 hhcurveto
          -27 -20 10 13 -18 hvcurveto
          endchar
        </CharString>
        <CharString name="nine.onum">
          -86 69 192 62 284 192 callgsubr
          237 rmoveto
          -89 -47 51 90 87 59 56 76 96 58 -69 -129 10 hvcurveto
          -62 192 callsubr
          -39 42 58 -29 78 hhcurveto
          138 129 101 264 205 -106 102 -139 -113 -99 -84 -124 -133 80 -70 118 65 64 32 50 52 hvcurveto
          -206 -6 -88 -68 -100 hhcurveto
          -49 -46 19 31 -32 hvcurveto
          endchar
        </CharString>
        <CharString name="nine.subs">
          -182 38 callgsubr
          43 -80 callsubr
        </CharString>
        <CharString name="nine.sups">
          428 38 callgsubr
          653 -80 callsubr
        </CharString>
        <CharString name="notequal">
          192 62 152 62 hstem
          85 430 vstem
          112 65 rmoveto
          61 hlineto
          76 127 rlineto
          266 62 -230 hlineto
          91 152 rlineto
          139 62 -103 hlineto
          76 127 rlineto
          -61 hlineto
          -76 -127 rlineto
          -266 -62 230 hlineto
          -91 -152 rlineto
          -139 -62 103 hlineto
          endchar
        </CharString>
        <CharString name="ntilde">
          125 callsubr
          113 165 callsubr
          93 82 1 47 190 46 -18 82 hintmask 1100110010000000
          -100 callsubr
          -51 vhcurveto
          -4 hlineto
          hintmask 1010110010000000
          115 callsubr
          hintmask 1100101100000000
          83 70 callsubr
          hintmask 1101001100000000
          193 callgsubr
          hintmask 1100101100000000
          82 callsubr
          endchar
        </CharString>
        <CharString name="numbersign">
          21 -21 204 57 148 58 183 -20 hstem
          87 432 vstem
          142 hmoveto
          54 hlineto
          24 204 rlineto
          133 hlineto
          -25 -204 rlineto
          54 hlineto
          24 204 rlineto
          93 57 -86 hlineto
          19 -6 callsubr
          87 58 -81 167 callgsubr
          -132 167 callgsubr
          -91 -58 85 hlineto
          -19 -148 rlineto
          -86 -57 79 hlineto
          61 57 rmoveto
          18 -6 callsubr
          133 hlineto
          -19 -148 rlineto
          endchar
        </CharString>
        <CharString name="o">
          -14 callsubr
          hstem
          60 85 310 85 vstem
          -106 callgsubr
          endchar
        </CharString>
        <CharString name="o.sups">
          -18 callgsubr
        </CharString>
        <CharString name="oacute">
          105 callgsubr
          hstem
          60 85 310 85 vstem
          -106 callgsubr
          270 479 -19 callgsubr
          endchar
        </CharString>
        <CharString name="ocircumflex">
          -12 158 callgsubr
          310 85 hintmask 11101100
          -106 callgsubr
          23 331 rmoveto
          63 hlineto
          hintmask 11011100
          -11 callgsubr
          hintmask 11101100
          -2 callsubr
          endchar
        </CharString>
        <CharString name="odieresis">
          -14 callsubr
          90 110 hstemhm
          60 85 5 108 84 108 5 85 hintmask 11010010
          -106 callgsubr
          hintmask 11101100
          59 346 -47 callgsubr
        </CharString>
        <CharString name="oe">
          -12 67 168 55 152 68 -65 65 hstemhm
          11 77 202 62 176 68 hintmask 11101110
          88 243 rmoveto
          111 35 76 68 60 39 -76 -111 -111 -39 -77 -60 -68 -35 77 111 vhcurveto
          -77 hmoveto
          -162 76 -93 100 62 46 39 73 28 vhcurveto
          -73 29 50 -39 63 hhcurveto
          46 40 20 23 31 hvcurveto
          -29 54 rlineto
          -18 -27 -24 -13 -34 hhcurveto
          -72 -39 68 101 -5 hvcurveto
          241 hlineto
          3 21 0 13 19 vvcurveto
          120 -48 102 -92 -63 -43 -44 -73 -27 vhcurveto
          74 -26 -48 43 -62 hhcurveto
          -99 -77 -93 -162 hvcurveto
          340 35 rmoveto
          hintmask 11011110
          95 8 32 60 59 hhcurveto
          59 19 -73 -82 hvcurveto
          endchar
        </CharString>
        <CharString name="ogonek">
          -11 callsubr
        </CharString>
        <CharString name="ograve">
          105 callgsubr
          hstem
          60 85 310 85 vstem
          -106 callgsubr
          157 331 49 callsubr
        </CharString>
        <CharString name="ohorn">
          -5 callsubr
          46 -46 68 80 callsubr
          -52 68 hintmask 10111000
          300 56 -68 callsubr
          hintmask 11010100
          -46 callgsubr
          hintmask 10111000
          -86 callgsubr
          hintmask 10110100
          -22 callgsubr
        </CharString>
        <CharString name="ohungarumlaut">
          -14 callsubr
          73 143 hstem
          60 85 310 85 vstem
          -106 callgsubr
          57 329 5 callgsubr
        </CharString>
        <CharString name="omacron">
          -14 callsubr
          103 57 hstem
          60 85 32 246 32 85 vstem
          -106 callgsubr
          32 359 rmoveto
          246 57 -246 hlineto
          endchar
        </CharString>
        <CharString name="one">
          0 68 470 185 callgsubr
          570 157 callsubr
          -470 -181 -68 430 68 vlineto
          endchar
        </CharString>
        <CharString name="one.dnom">
          230 105 callsubr
          hmoveto
          32 callgsubr
        </CharString>
        <CharString name="one.numr">
          563 105 callsubr
          333 rmoveto
          63 305 -50 hlineto
          -28 -17 -23 -9 160 callgsubr
        </CharString>
        <CharString name="one.onum">
          0 68 406 185 callgsubr
          506 157 callsubr
          -406 -181 -68 430 68 vlineto
          endchar
        </CharString>
        <CharString name="one.subs">
          60 105 callsubr
          -170 rmoveto
          32 callgsubr
        </CharString>
        <CharString name="one.sups">
          670 105 callsubr
          440 rmoveto
          32 callgsubr
        </CharString>
        <CharString name="oneeighth">
          -12 45 239 45 246 127 callsubr
          90 59 -47 59 111 59 -48 58 hintmask 1101110010000000
          111 callgsubr
          hintmask 0010100000000000
          -27 130 callgsubr
          hintmask 1001110010000000
          -42 82 vlineto
          -79 -531 -82 callsubr
        </CharString>
        <CharString name="onehalf">
          0 53 212 52 246 127 callsubr
          99 239 -78 63 hintmask 11011010
          111 callgsubr
          hintmask 11101010
          -27 130 callgsubr
          hintmask 11011100
          20 callgsubr
          -254 -579 rmoveto
          239 53 -136 hlineto
          hintmask 11011010
          172 callgsubr
          -41 -26 -35 -29 vhcurveto
          39 -33 rlineto
          25 19 25 17 27 hhcurveto
          39 22 -23 -36 -44 -57 -47 -104 -79 hvcurveto
          endchar
        </CharString>
        <CharString name="onequarter">
          0 116 -43 43 138 51 258 127 callsubr
          249 57 hintmask 01001110
          572 579 rmoveto
          -49 45 -167 -203 33 -30 rlineto
          -233 -58 rmoveto
          63 305 -51 hlineto
          hintmask 01010110
          -27 130 callgsubr
          hintmask 01101110
          -42 82 vlineto
          -128 -486 rmoveto
          49 -45 131 callgsubr
          -33 30 rlineto
          159 -149 rmoveto
          54 73 45 65 rlineto
          4 hlineto
          -5 -82 rlineto
          -56 vlineto
          107 hmoveto
          -50 189 -71 hlineto
          -148 -201 rlineto
          -31 162 vlineto
          hintmask 10001110
          -73 57 vlineto
          hintmask 01001110
          73 50 vlineto
          endchar
        </CharString>
        <CharString name="onethird">
          -12 50 98 38 94 49 246 127 callsubr
          258 63 -48 63 hintmask 11101101
          111 callgsubr
          hintmask 11110101
          -27 130 callgsubr
          hintmask 11101101
          20 callgsubr
          -265 -537 -60 callsubr
          hintmask 11101110
          20 callsubr
          hintmask 11101101
          103 callgsubr
        </CharString>
        <CharString name="ordfeminine">
          -63 callsubr
        </CharString>
        <CharString name="ordfeminine.a">
          -52 callgsubr
        </CharString>
        <CharString name="ordmasculine">
          -18 callgsubr
        </CharString>
        <CharString name="oslash">
          -12 66 -45 -21 444 66 0 -20 80 callsubr
          hintmask 10101100
          428 356 rmoveto
          17 -31 10 -39 -44 vvcurveto
          -111 -62 -77 -93 -39 -34 14 24 -26 vhcurveto
          -29 38 rmoveto
          -17 30 -10 38 44 vvcurveto
          112 62 78 93 39 34 -14 -24 25 vhcurveto
          hintmask 10011100
          136 86 rmoveto
          hintmask 01101100
          -37 29 -51 -59 rlineto
          31 -41 -51 17 -54 hhcurveto
          -128 -112 -93 -163 -72 23 -59 36 -43 hvcurveto
          -53 -62 rlineto
          hintmask 10011100
          37 -29 51 59 rlineto
          -31 41 51 -17 54 hhcurveto
          128 112 93 161 73 -23 60 -36 43 hvcurveto
          endchar
        </CharString>
        <CharString name="otilde">
          -14 callsubr
          81 165 callsubr
          60 85 13 47 190 47 13 85 hintmask 11011001
          -106 callgsubr
          hintmask 11011111
          13 337 rmoveto
          -37 callgsubr
          -47 hlineto
          hintmask 11101111
          29 callsubr
          hintmask 11011111
          82 callsubr
          endchar
        </CharString>
        <CharString name="p">
          123 callsubr
          -12 -20 hstemhm
          93 82 280 85 hintmask 11101100
          173 51 rmoveto
          -40 44 57 -23 45 hhcurveto
          117 104 97 165 151 -70 97 -131 -60 -63 -31 -43 -45 hvcurveto
          -3 hlineto
          hintmask 11011100
          -7 62 rlineto
          -68 -691 82 164 hlineto
          155 vmoveto
          hintmask 11101100
          108 callsubr
          -87 hvcurveto
          hintmask 11011100
          -33 -51 16 41 -46 hvcurveto
          endchar
        </CharString>
        <CharString name="p.sups">
          252 53 232 53 hstem
          172 64 170 66 vstem
          234 289 rmoveto
          -24 30 31 -13 188 callgsubr
          -86 -40 -37 -20 -24 -30 hvcurveto
          -3 hlineto
          -5 36 rlineto
          -52 -455 64 107 hlineto
          101 vmoveto
          162 vlineto
          27 31 27 93 callsubr
        </CharString>
        <CharString name="paragraph">
          656 -20 hstem
          72 278 54 81 vstem
          404 -80 rmoveto
          81 736 -81 hlineto
          -54 hmoveto
          -43 hlineto
          -134 -101 -56 -157 -151 105 -66 141 hvcurveto
          32 hlineto
          endchar
        </CharString>
        <CharString name="parenleft">
          -176 908 hstem
          208 74 vstem
          433 -176 rmoveto
          45 42 rlineto
          -134 113 -62 131 168 vvcurveto
          168 62 131 134 113 vhcurveto
          -45 42 rlineto
          -139 -108 -86 -153 -193 vvcurveto
          -193 86 -153 139 -108 vhcurveto
          endchar
        </CharString>
        <CharString name="parenleft.dnom">
          -76 79 callgsubr
          159 -32 callsubr
        </CharString>
        <CharString name="parenleft.numr">
          190 79 callgsubr
          425 rmoveto
          -99 39 -71 66 -65 vhcurveto
          46 33 rlineto
          -60 60 -25 65 77 vvcurveto
          78 25 65 60 60 vhcurveto
          -46 33 rlineto
          -66 -65 -39 -71 -100 vvcurveto
          endchar
        </CharString>
        <CharString name="parenleft.subs">
          -246 79 callgsubr
          -11 -32 callsubr
        </CharString>
        <CharString name="parenleft.sups">
          364 79 callgsubr
          599 -32 callsubr
        </CharString>
        <CharString name="parenright">
          -176 908 hstem
          318 74 vstem
          167 -176 rmoveto
          139 108 86 153 193 vvcurveto
          193 -86 153 -139 108 vhcurveto
          -45 -42 rlineto
          134 -113 62 -131 -168 vvcurveto
          -168 -62 -131 -134 -113 vhcurveto
          endchar
        </CharString>
        <CharString name="parenright.dnom">
          -76 78 callgsubr
          159 -31 callgsubr
        </CharString>
        <CharString name="parenright.numr">
          190 78 callgsubr
          425 rmoveto
          100 -39 71 -66 65 vhcurveto
          -46 -33 rlineto
          60 -60 25 -65 -78 vvcurveto
          -77 -25 -65 -60 -60 vhcurveto
          46 -33 rlineto
          66 65 39 71 99 vvcurveto
          endchar
        </CharString>
        <CharString name="parenright.subs">
          -246 78 callgsubr
          -11 -31 callgsubr
        </CharString>
        <CharString name="parenright.sups">
          364 78 callgsubr
          599 -31 callgsubr
        </CharString>
        <CharString name="partialdiff">
          -12 68 284 66 198 68 hstem
          76 78 289 80 vstem
          266 56 rmoveto
          -60 -52 50 79 88 48 67 98 44 48 -20 -56 44 hvcurveto
          -132 -21 -63 -76 -86 hhcurveto
          -75 497 rmoveto
          32 32 38 19 42 hhcurveto
          86 54 -70 -167 -11 0 -11 -1 -11 hvcurveto
          45 -39 -56 27 -54 hhcurveto
          -135 -82 -94 -132 -119 86 -73 96 158 107 152 225 206 -83 101 -129 -62 -54 -25 -42 -42 hvcurveto
          endchar
        </CharString>
        <CharString name="percent">
          -12 50 230 49 4 49 230 50 hstemhm
          26 62 155 62 -10 62 155 62 hintmask 10111011
          166 321 rmoveto
          hintmask 00111100
          80 59 62 104 104 -59 59 -80 -81 -59 -59 -104 hvcurveto
          hintmask 10111011
          -104 59 -62 81 vhcurveto
          hintmask 00111100
          49 vmoveto
          -44 -34 39 78 80 34 33 44 43 34 -33 -80 -78 -34 -39 -43 hvcurveto
          -89 -338 rmoveto
          131 callgsubr
          -32 30 -183 -188 rlineto
          495 547 rmoveto
          -168 -203 33 -30 183 188 rlineto
          hintmask 11000011
          -138 -591 rmoveto
          81 59 62 105 103 -59 59 -81 -80 -59 -59 -103 -105 59 -62 80 hvcurveto
          50 vmoveto
          -43 -34 38 79 79 34 34 43 44 34 -34 -79 -79 -34 -38 -44 hvcurveto
          endchar
        </CharString>
        <CharString name="period">
          -12 114 callsubr
          72 rmoveto
          92 callgsubr
        </CharString>
        <CharString name="period.dnom">
          -8 95 125 callgsubr
          39 13 callsubr
        </CharString>
        <CharString name="period.numr">
          258 96 125 callgsubr
          306 rmoveto
          -29 20 -19 26 26 20 19 29 28 -20 20 -26 -26 -20 -20 -28 vhcurveto
          endchar
        </CharString>
        <CharString name="period.subs">
          -178 95 125 callgsubr
          -131 13 callsubr
        </CharString>
        <CharString name="period.sups">
          432 95 125 callgsubr
          479 13 callsubr
        </CharString>
        <CharString name="periodcentered">
          263 114 callsubr
          347 rmoveto
          -50 36 166 callgsubr
          -36 -35 -50 vhcurveto
          endchar
        </CharString>
        <CharString name="perthousand">
          -12 42 176 43 140 42 177 42 hstem
          48 54 125 55 37 54 125 55 vstem
          165 389 0 callgsubr
          60 27 27 36 36 26 -27 -60 -62 -26 -28 -36 hvcurveto
          386 79 rmoveto
          -446 -201 14 -31 456 174 rlineto
          -410 -464 0 callgsubr
          59 27 27 36 36 26 -26 -60 -62 -26 -28 -36 hvcurveto
          271 -42 0 callgsubr
          59 27 27 36 36 26 -26 -60 -62 -26 -28 -36 hvcurveto
          endchar
        </CharString>
        <CharString name="peseta">
          21 -21 245 57 115 56 108 57 hstem
          118 79 214 143 vstem
          197 302 rmoveto
          115 214 vlineto
          -76 -10 -54 -39 -91 hhcurveto
          279 vmoveto
          91 54 -30 -78 10 hvcurveto
          -214 108 hlineto
          357 -108 rmoveto
          -64 hlineto
          120 -13 -90 45 -121 hhcurveto
          -148 -165 hlineto
          -75 -5 rlineto
          -51 75 -417 79 245 69 vlineto
          119 93 55 117 12 hvcurveto
          64 hlineto
          endchar
        </CharString>
        <CharString name="pi">
          -12 68 362 68 hstem
          134 77 179 78 vstem
          390 110 rmoveto
          -79 30 -43 76 25 16 5 6 14 vhcurveto
          -11 63 rlineto
          -4 -13 -8 -2 -6 hhcurveto
          -31 -14 14 34 47 1 157 6 110 hvcurveto
          86 68 -452 hlineto
          -70 -5 rlineto
          -63 95 vlineto
          -131 -4 -144 -16 -143 vhcurveto
          83 -5 rlineto
          9 142 5 145 136 vvcurveto
          185 hlineto
          -2 -106 -4 -152 -50 vvcurveto
          endchar
        </CharString>
        <CharString name="plus">
          299 62 hstem
          267 66 vstem
          267 104 rmoveto
          66 195 182 62 -182 195 -66 -195 -182 -62 182 hlineto
          endchar
        </CharString>
        <CharString name="plusminus">
          0 62 242 62 hstem
          267 66 vstem
          267 127 rmoveto
          66 177 182 62 -182 190 -66 -190 -182 -62 182 hlineto
          -182 -304 rmoveto
          44 callgsubr
          endchar
        </CharString>
        <CharString name="product">
          565 73 hstem
          52 83 328 85 vstem
          52 -120 rmoveto
          83 685 328 -685 85 758 -496 hlineto
          endchar
        </CharString>
        <CharString name="q">
          123 callsubr
          -12 -20 106 callgsubr
          hintmask 11101100
          60 -4 callgsubr
          -162 84 -92 127 59 56 33 41 43 vhcurveto
          -4 -88 rlineto
          -179 82 vlineto
          hintmask 11011100
          691 -66 vlineto
          hintmask 11101100
          -7 -54 rlineto
          -3 hlineto
          43 -46 -45 23 -59 hhcurveto
          -81 callsubr
          endchar
        </CharString>
        <CharString name="q.sups">
          14 callsubr
          137 421 rmoveto
          -107 55 -62 84 39 35 19 23 27 vhcurveto
          -3 -55 rlineto
          -112 64 455 -52 vlineto
          -5 -31 rlineto
          -2 hlineto
          26 -30 -27 13 16 callgsubr
        </CharString>
        <CharString name="question">
          -12 154 -133 -21 626 68 hstemhm
          213 146 39 81 hintmask 01111000
          242 232 rmoveto
          73 hlineto
          -18 130 182 33 131 vvcurveto
          95 -75 61 -111 -77 -62 -34 -47 -45 vhcurveto
          49 -45 rlineto
          36 36 43 22 51 hhcurveto
          73 37 -42 -55 -102 -180 -40 24 -143 hvcurveto
          -29 -166 187 callsubr
          hintmask 10111000
          47 -33 29 -40 vhcurveto
          hintmask 01111000
          -40 -33 -29 -47 hvcurveto
          endchar
        </CharString>
        <CharString name="questiondown">
          -196 69 471 154 0 -20 hstemhm
          123 80 39 147 hintmask 10111000
          359 254 rmoveto
          -73 hlineto
          18 -130 -181 -33 -131 vvcurveto
          -95 74 -61 111 77 63 34 47 44 vhcurveto
          -48 45 rlineto
          -36 -36 -44 -21 -50 hhcurveto
          -73 -38 41 55 102 180 40 -24 143 hvcurveto
          30 167 rmoveto
          47 -34 30 -40 -40 -33 -30 -47 vhcurveto
          hintmask 11011000
          -48 33 -29 40 vhcurveto
          hintmask 10111000
          40 34 29 48 hvcurveto
          endchar
        </CharString>
        <CharString name="quotedbl">
          352 335 hstem
          131 108.5 121 108.5 vstem
          157 352 rmoveto
          56 hlineto
          26 225 1 110 rlineto
          -110 hlineto
          2 -110 rlineto
          255 -225 144 callsubr
          1 -110 rlineto
          endchar
        </CharString>
        <CharString name="quotedblbase">
          -26 155 callgsubr
          -226 rmoveto
          90 46 53 82 100 vvcurveto
          76 -37 45 -53 -43 -30 -32 -45 -43 24 callgsubr
          -45 -43 102 callsubr
        </CharString>
        <CharString name="quotedblleft">
          350 149 hstem
          95 66 163 66 vstem
          238 699 rmoveto
          -90 -46 -53 -83 -100 vvcurveto
          -75 37 -45 53 43 30 31 46 42 -29 30 -41 186 callsubr
          62 36 rrcurveto
          203 48 rmoveto
          -90 -46 -54 -83 -100 vvcurveto
          -75 38 -45 52 43 31 31 46 42 -29 30 -42 186 callsubr
          63 36 rrcurveto
          endchar
        </CharString>
        <CharString name="quotedblright">
          550 155 callgsubr
          350 rmoveto
          90 46 53 82 100 vvcurveto
          76 -37 45 -53 -43 -30 -32 -46 -42 24 callgsubr
          -46 -42 102 callsubr
        </CharString>
        <CharString name="quoteleft">
          -4 callsubr
        </CharString>
        <CharString name="quoteright">
          550 149 hstem
          321 67 vstem
          245 -38 callsubr
          endchar
        </CharString>
        <CharString name="quotesinglbase">
          -26 149 hstem
          321 67 vstem
          245 -226 rmoveto
          89 46 54 82 100 vvcurveto
          76 -37 45 -53 -43 -31 -32 -45 -43 29 -29 42 9 9 2 4 8 vhcurveto
          -4 -70 -37 -53 -63 -35 rrcurveto
          endchar
        </CharString>
        <CharString name="quotesingle">
          352 335 hstem
          246 108 vstem
          272 352 144 callsubr
          2 -110 rlineto
          endchar
        </CharString>
        <CharString name="r">
          21 79 callsubr
          146 82 hintmask 11001000
          -69 callsubr
          hintmask 10101000
          19 71 rlineto
          hintmask 11001000
          -43 callsubr
          hintmask 10011000
          81 callsubr
          endchar
        </CharString>
        <CharString name="r.sups">
          533 57 hstem
          243 64 vstem
          243 260 rmoveto
          64 183 hlineto
          66 32 43 24 41 hhcurveto
          24 13 -3 -7 23 hvcurveto
          13 54 rlineto
          9 -20 -19 4 -25 hhcurveto
          -52 -46 -31 -52 -30 hvcurveto
          -2 hlineto
          -5 75 rlineto
          -54 hlineto
          endchar
        </CharString>
        <CharString name="racute">
          21 148 callsubr
          107 148 hstemhm
          146 82 hintmask 11001100
          -69 callsubr
          hintmask 10101100
          19 71 rlineto
          hintmask 11001100
          -43 callsubr
          hintmask 10011100
          81 callsubr
          310 72 callgsubr
        </CharString>
        <CharString name="radical">
          -95 90 hstem
          62 521 vstem
          196 405 rmoveto
          -134 -59 20 -45 71 32 150 -428 rlineto
          62 hlineto
          218 915 rlineto
          -60 hlineto
          -178 -761 -5 -21 -3 -22 -4 -21 rlinecurve
          -4 hlineto
          -5 21 -6 22 -6 21 rrcurveto
          endchar
        </CharString>
        <CharString name="rcaron">
          21 148 callsubr
          107 51 callgsubr
          146 82 hintmask 11000110
          -69 callsubr
          hintmask 10100110
          19 71 rlineto
          hintmask 11000110
          -43 callsubr
          hintmask 10010110
          81 callsubr
          160 182 callsubr
          hintmask 11001010
          37 callgsubr
          hintmask 11000110
          22 callsubr
        </CharString>
        <CharString name="registered">
          319 37 131 32 67 34 57 36 hstem
          112 39 76 41 70 44 66 40 vstem
          300 319 rmoveto
          103 85 80 117 117 -85 80 -103 -104 -84 -80 -117 -117 84 -80 104 hvcurveto
          37 vmoveto
          -84 -65 65 95 94 65 67 84 84 64 -67 -94 -95 -64 -65 -84 hvcurveto
          -73 61 rmoveto
          41 70 41 hlineto
          35 -70 rlineto
          46 hlineto
          -46 83 rlineto
          22 8 16 23 24 vvcurveto
          48 -37 17 -42 vhcurveto
          -76 hlineto
          41 -101 rmoveto
          67 28 vlineto
          30 12 -13 -20 -22 -17 -12 -27 hvcurveto
          endchar
        </CharString>
        <CharString name="ring">
          542 37 111 37 hstem
          207 45 96 45 vstem
          300 542 rmoveto
          54 39 37 56 55 -39 -26 callgsubr
        </CharString>
        <CharString name="s">
          -12 64 382 64 hstem
          100 84 259 83 vstem
          -101 callsubr
          endchar
        </CharString>
        <CharString name="s.sups">
          252 49 241 48 hstem
          180 64 144 63 vstem
          162 297 rmoveto
          -25 36 53 -20 57 hhcurveto
          93 50 44 54 61 -65 19 -58 17 hvcurveto
          -43 13 -41 12 28 vvcurveto
          23 21 19 50 36 29 -12 -17 27 vhcurveto
          30 40 rlineto
          20 -31 -43 17 -48 hhcurveto
          -85 -50 -40 -53 -55 64 -22 56 -17 hvcurveto
          43 -13 45 -14 -30 vvcurveto
          -25 -25 -20 -53 -49 -35 14 24 -34 vhcurveto
          endchar
        </CharString>
        <CharString name="sacute">
          -12 64 382 64 75 148 hstem
          100 84 259 83 vstem
          -101 callsubr
          306 603 rmoveto
          -89 hlineto
          -91 50 callsubr
          endchar
        </CharString>
        <CharString name="scaron">
          -12 64 382 64 75 51 callgsubr
          100 84 259 83 hintmask 11011100
          -101 callsubr
          156 455 31 callgsubr
          -64 hlineto
          hintmask 11101100
          37 callgsubr
          hintmask 11011100
          22 callsubr
        </CharString>
        <CharString name="scircumflex">
          -12 64 382 64 75 178 callgsubr
          100 84 259 83 hintmask 11101100
          -101 callsubr
          59 455 rmoveto
          63 hlineto
          hintmask 11011100
          -11 callgsubr
          hintmask 11101100
          67 -99 rlineto
          64 22 callgsubr
        </CharString>
        <CharString name="section">
          -64 64 620 64 hstemhm
          91 71 -11 75 147 75 -10 71 hintmask 11100100
          371 192 rmoveto
          -85 50 -124 18 88 vvcurveto
          41 27 26 41 21 vhcurveto
          85 -49 123 -19 -90 vvcurveto
          -45 -24 -22 -43 -19 vhcurveto
          92 435 rmoveto
          31 -40 -55 26 -66 hhcurveto
          hintmask 11010100
          -100 -51 -61 -69 -34 12 -26 19 -21 hvcurveto
          hintmask 11101000
          -53 -28 -38 -43 -59 -185 282 25 -114 vvcurveto
          -38 -32 -31 -54 -56 -38 20 32 -35 vhcurveto
          -50 -45 rlineto
          -44 42 64 -27 73 hhcurveto
          95 66 58 79 34 -11 26 -18 21 hvcurveto
          hintmask 11010100
          54 29 36 37 64 184 -283 -19 108 vvcurveto
          34 24 29 56 46 37 -20 -26 34 vhcurveto
          endchar
        </CharString>
        <CharString name="semicolon">
          4 151 191 169 hstemhm
          219 162 -58 73 hintmask 11100000
          300 346 rmoveto
          45 36 34 51 50 -36 34 -45 -45 -36 -34 -50 -51 36 -34 45 hvcurveto
          -80 -559 rmoveto
          hintmask 11010000
          16 callsubr
        </CharString>
        <CharString name="seven">
          21 -21 567 71 hstem
          226 86 vstem
          226 hmoveto
          86 hlineto
          9 250 42 144 169 193 186 callgsubr
          -179 -55 -146 -11 -242 rrcurveto
          endchar
        </CharString>
        <CharString name="seven.dnom">
          252 26 callgsubr
          hmoveto
          65 hlineto
          5 106 18 70 85 93 -25 callgsubr
        </CharString>
        <CharString name="seven.numr">
          585 26 callgsubr
          333 rmoveto
          65 hlineto
          5 105 18 70 85 94 -25 callgsubr
        </CharString>
        <CharString name="seven.onum">
          503 71 hstem
          226 86 vstem
          226 -74 rmoveto
          86 hlineto
          10 255 41 147 169 195 186 callgsubr
          -181 -55 -151 -11 -245 rrcurveto
          endchar
        </CharString>
        <CharString name="seven.subs">
          82 26 callgsubr
          -170 rmoveto
          65 hlineto
          5 106 18 70 85 93 -25 callgsubr
        </CharString>
        <CharString name="seven.sups">
          692 26 callgsubr
          440 rmoveto
          65 hlineto
          5 106 18 70 85 93 -25 callgsubr
        </CharString>
        <CharString name="seveneighths">
          -12 45 239 45 268 53 hstemhm
          48 243 -173 66 125 59 -47 59 111 59 -48 58 hintmask 1110110010000000
          118 333 rmoveto
          66 hlineto
          hintmask 0011000000000000
          5 105 18 70 84 94 rrcurveto
          36 -243 -53 vlineto
          hintmask 0010100000000000
          170 hlineto
          hintmask 1110110010000000
          -65 -83 -28 -66 -7 -103 rrcurveto
          -41 -301 -82 callsubr
        </CharString>
        <CharString name="six">
          -12 65 275 62 191 69 hstem
          77 77 302 78 vstem
          321 53 rmoveto
          -93 -59 66 123 -12 hvcurveto
          62 54 59 24 50 121 callgsubr
          39 -42 -58 29 -78 hhcurveto
          -139 -128 71 callgsubr
          -66 -32 -51 -51 hvcurveto
          205 3 90 69 102 hhcurveto
          48 46 -19 -31 33 hvcurveto
          endchar
        </CharString>
        <CharString name="six.dnom">
          -12 50 107 42 81 49 hstem
          176 59 135 59 vstem
          312 38 rmoveto
          -35 -33 21 51 -8 hvcurveto
          25 26 23 10 26 hhcurveto
          41 18 -22 -31 -33 -21 -21 -37 162 callgsubr
          18 -25 -28 14 -40 hhcurveto
          -91 -63 -63 -114 -94 59 -58 78 68 48 47 57 56 -35 39 -68 -36 -30 -13 -22 -25 hvcurveto
          76 4 37 40 57 hhcurveto
          26 20 -10 -14 18 hvcurveto
          endchar
        </CharString>
        <CharString name="six.numr">
          321 49 107 43 80 50 114 callgsubr
          370 rmoveto
          -35 -34 22 51 -7 hvcurveto
          25 26 23 9 26 hhcurveto
          41 18 -21 -31 -33 -22 -22 -36 162 callgsubr
          19 -25 -29 14 -39 hhcurveto
          -91 -63 -63 -114 -94 59 -58 78 67 48 46 58 56 -34 39 -68 -35 -31 -13 -22 -25 hvcurveto
          76 5 36 39 56 hhcurveto
          27 20 -10 -13 18 hvcurveto
          endchar
        </CharString>
        <CharString name="six.onum">
          -12 65 275 62 191 69 -68 -20 hstemhm
          78 78 301 78 hintmask 11011100
          322 53 rmoveto
          -94 -57 66 124 -13 hvcurveto
          61 54 60 24 49 121 callgsubr
          hintmask 11101100
          39 -42 -58 29 -78 hhcurveto
          -138 -129 71 callgsubr
          -64 -32 -50 -52 hvcurveto
          204 4 88 69 102 hhcurveto
          49 45 -19 -31 33 hvcurveto
          endchar
        </CharString>
        <CharString name="six.subs">
          -182 50 107 42 81 49 114 callgsubr
          -132 -39 callgsubr
        </CharString>
        <CharString name="six.sups">
          428 50 107 42 81 49 114 callgsubr
          478 -39 callgsubr
        </CharString>
        <CharString name="slash">
          -160 870 hstem
          99 402 vstem
          501 710 rmoveto
          -74 hlineto
          -328 -870 rlineto
          74 hlineto
          endchar
        </CharString>
        <CharString name="slash.frac">
          32 592 hstem
          28 544 vstem
          77 32 -94 callgsubr
          endchar
        </CharString>
        <CharString name="space">
          endchar
        </CharString>
        <CharString name="space.frac">
          endchar
        </CharString>
        <CharString name="sterling">
          0 71 214 56 240 69 hstemhm
          144 79 -21 73 hintmask 11101000
          171 callgsubr
          vvcurveto
          20 -2 18 -4 18 vhcurveto
          173 56 hlineto
          hintmask 11110000
          -189 hlineto
          -15 42 -15 39 42 46 callgsubr
          -42 17 -41 15 -42 hvcurveto
          -99 -4 rlineto
          -52 vlineto
          hintmask 11101000
          117 hlineto
          5 -18 3 -18 -19 137 callsubr
        </CharString>
        <CharString name="summation">
          -120 71 616 71 hstemhm
          70 104 -93 103 hintmask 11100000
          70 -67 rmoveto
          -53 479 71 -375 4 vlineto
          222 305 rlineto
          hintmask 11010000
          -212 303 rlineto
          4 337 71 -440 -53 vlineto
          227 -326 rlineto
          endchar
        </CharString>
        <CharString name="t">
          -12 67 364 67 hstem
          206 82 vstem
          -97 callsubr
          endchar
        </CharString>
        <CharString name="t.sups">
          252 51 228 51 hstem
          241 64 vstem
          241 387 rmoveto
          -81 32 -54 96 34 34 8 11 26 vhcurveto
          -13 46 rlineto
          -8 -20 -20 -6 -26 hhcurveto
          -59 -20 28 56 hvcurveto
          144 145 51 -145 90 -53 vlineto
          -8 -90 -80 -3 rlineto
          -48 77 vlineto
          endchar
        </CharString>
        <CharString name="tcaron">
          -12 67 364 67 62 212 hstem
          206 82 106 49 vstem
          -97 callsubr
          230 129 46 callsubr
        </CharString>
        <CharString name="thorn">
          123 callsubr
          214 -20 hstem
          93 82 280 85 vstem
          175 -41 rmoveto
          -1 92 rlineto
          -38 44 53 -25 48 hhcurveto
          115 106 97 165 151 -72 97 -131 -57 -60 -29 -45 -47 hvcurveto
          2 87 rlineto
          201 -82 -917 82 vlineto
          319 vmoveto
          242 vlineto
          50 50 49 23 43 hhcurveto
          97 41 -72 -107 -120 -65 -73 -85 -34 -50 16 41 -46 hvcurveto
          endchar
        </CharString>
        <CharString name="three">
          -12 68 244 63 220 142 callgsubr
          78 167 callsubr
          69 113 88 -73 56 -85 18 hvcurveto
          4 vlineto
          hintmask 11111000
          79 26 57 49 77 vvcurveto
          103 -91 59 90 callgsubr
          -39 -62 -67 -58 -52 -151 hvcurveto
          -63 vlineto
          hintmask 11110100
          168 64 -51 -76 -71 -66 -46 -87 -82 -59 36 40 -42 hvcurveto
          endchar
        </CharString>
        <CharString name="three.dnom">
          -12 37 callsubr
          42 -83 callgsubr
        </CharString>
        <CharString name="three.numr">
          321 49 99 38 93 50 hstemhm
          342 63 -48 63 hintmask 11101000
          172 375 -40 callsubr
          52 -44 32 -62 -46 -44 -18 -27 -25 vhcurveto
          30 -38 rlineto
          20 20 29 74 callgsubr
          hintmask 11101000
          179 callgsubr
          -35 -32 -26 -15 -36 -36 -35 20 24 -20 hvcurveto
          endchar
        </CharString>
        <CharString name="three.onum">
          -86 69 248 64 224 142 callgsubr
          4 167 callsubr
          70 116 90 -73 55 -85 19 hvcurveto
          4 vlineto
          hintmask 11111000
          79 26 57 50 78 vvcurveto
          103 -91 61 90 callgsubr
          -41 -62 -69 -58 -52 -151 hvcurveto
          -64 vlineto
          hintmask 11110100
          168 64 -50 -78 -74 -66 -46 -87 -82 -59 35 40 -42 hvcurveto
          endchar
        </CharString>
        <CharString name="three.subs">
          -182 37 callsubr
          -128 -83 callgsubr
        </CharString>
        <CharString name="three.sups">
          428 37 callsubr
          482 -83 callgsubr
        </CharString>
        <CharString name="threeeighths">
          -12 45 239 45 4 49 99 38 93 50 hstemhm
          208 63 -48 63 23 59 -47 59 111 59 -48 58 hintmask 0010001000000000
          38 375 -60 callsubr
          hintmask 0001110000000000
          60 callgsubr
          52 -44 32 -62 -46 -44 -18 -27 -25 vhcurveto
          30 -38 rlineto
          20 20 29 74 callgsubr
          hintmask 0011001000000000
          179 callgsubr
          -35 -32 -27 -15 -35 -36 -35 20 24 -20 hvcurveto
          7 -382 -94 callgsubr
          hintmask 1000000100100000
          -44 callsubr
          hintmask 0100000011000000
          -34 callgsubr
          hintmask 1000000100100000
          -15 callsubr
          hintmask 0100000011000000
          25 14 28 21 37 vvcurveto
          49 -49 35 -66 -62 -52 -35 -49 -36 24 -18 30 -18 vhcurveto
          -4 vlineto
          hintmask 1000000100100000
          -34 -16 -32 -23 -42 vvcurveto
          endchar
        </CharString>
        <CharString name="threequarters">
          0 116 -43 43 138 51 16 49 99 38 93 50 hstemhm
          208 63 -49 63 183 58 hintmask 1001110110000000
          597 579 rmoveto
          -48 45 -168 -203 33 -30 rlineto
          -360 -314 rmoveto
          48 -45 131 callgsubr
          -32 30 rlineto
          -158 302 rmoveto
          hintmask 1001111010000000
          20 20 30 74 callgsubr
          hintmask 1001110110000000
          -38 vlineto
          64 31 -17 -35 -32 -26 -15 -36 -35 -35 20 24 -21 hvcurveto
          -31 -39 rlineto
          -34 33 48 -20 46 hhcurveto
          68 52 34 59 41 -27 26 -43 10 hvcurveto
          hintmask 1011111010000000
          60 callgsubr
          52 -45 32 -61 -47 -43 -18 -27 -26 vhcurveto
          322 -489 rmoveto
          54 73 44 65 rlineto
          4 hlineto
          -5 -82 rlineto
          -56 vlineto
          58 189 rmoveto
          -71 hlineto
          hintmask 0101110110000000
          -149 -201 rlineto
          -31 162 vlineto
          hintmask 1001110110000000
          -73 58 vlineto
          hintmask 0101110110000000
          73 50 vlineto
          hintmask 1001110110000000
          43 -50 vlineto
          endchar
        </CharString>
        <CharString name="tilde">
          -27 callsubr
        </CharString>
        <CharString name="trademark">
          421 61 126 68 -54 54 hstemhm
          91 60 141 54 179 55 hintmask 00111100
          292 366 rmoveto
          54 137 hlineto
          hintmask 11011100
          -7 105 rlineto
          4 hlineto
          28 callsubr
          rlineto
          hintmask 00111100
          -45 114 rlineto
          -71 hlineto
          -201 -310 rmoveto
          60 256 96 54 -252 -54 96 hlineto
          endchar
        </CharString>
        <CharString name="triagdn">
          30 495 hstem
          38 524 vstem
          299 30 rmoveto
          4 hlineto
          259 493 rlineto
          2 -524 -2 vlineto
          endchar
        </CharString>
        <CharString name="triagup">
          38 496 hstem
          38 524 vstem
          38 38 92 callsubr
        </CharString>
        <CharString name="two">
          0 71 512 169 callsubr
          -210 hlineto
          -38 -42 -3 -3 -39 hvcurveto
          174 158 120 119 120 vvcurveto
          113 -80 75 91 callgsubr
          -52 -73 -106 -119 -112 -216 -191 hvcurveto
          endchar
        </CharString>
        <CharString name="two.dnom">
          0 53 212 52 hstemhm
          183 239 -78 63 hintmask 11100000
          183 hmoveto
          239 53 -136 hlineto
          hintmask 11010000
          172 callgsubr
          -40 -26 -35 -30 vhcurveto
          39 -33 rlineto
          25 19 26 17 27 hhcurveto
          38 22 -23 -36 -44 -57 -47 -104 -79 hvcurveto
          endchar
        </CharString>
        <CharString name="two.numr">
          333 53 211 53 94 callsubr
          333 rmoveto
          238 53 -136 hlineto
          hintmask 11010000
          67 59 54 47 55 vvcurveto
          65 -43 38 -72 -48 -41 -26 -35 -30 vhcurveto
          40 100 callsubr
          endchar
        </CharString>
        <CharString name="two.onum">
          0 71 448 169 callsubr
          -194 hlineto
          -38 -42 -3 -3 -39 hvcurveto
          171 123 107 103 102 vvcurveto
          117 -80 76 91 callgsubr
          -53 -77 -85 -116 -109 -219 -146 hvcurveto
          endchar
        </CharString>
        <CharString name="two.subs">
          -170 53 212 52 94 callsubr
          -170 -1 callgsubr
        </CharString>
        <CharString name="two.sups">
          440 53 212 52 94 callsubr
          440 -1 callgsubr
        </CharString>
        <CharString name="twothirds">
          -12 50 98 38 94 49 16 53 211 53 hstemhm
          49 239 -78 63 204 63 -48 63 hintmask 1101110010000000
          49 333 rmoveto
          239 53 -136 hlineto
          hintmask 1101101010000000
          66 59 55 47 55 vvcurveto
          65 -44 38 -72 -48 -40 -26 -35 -30 vhcurveto
          39 100 callsubr
          28 -336 -94 callgsubr
          -265 -537 -60 callsubr
          hintmask 1111101100000000
          20 callsubr
          hintmask 1101101010000000
          103 callgsubr
        </CharString>
        <CharString name="u">
          -12 124 callsubr
          263 82 hintmask 10111000
          505 486 rmoveto
          -82 -105 callsubr
          hintmask 01111000
          -6 callgsubr
          endchar
        </CharString>
        <CharString name="u.sups">
          252 55 hstem
          159 64 156 64 vstem
          443 582 rmoveto
          -64 -224 hlineto
          -37 -32 -25 -14 -34 hhcurveto
          -47 -18 25 55 hvcurveto
          195 -64 -203 vlineto
          -82 34 -45 73 49 37 24 35 31 vhcurveto
          2 hlineto
          6 -51 rlineto
          52 hlineto
          endchar
        </CharString>
        <CharString name="uacute">
          -64 callsubr
          107 148 56 callsubr
          hintmask 10111100
          505 486 rmoveto
          -82 -105 callsubr
          hintmask 01111100
          -6 callgsubr
          -96 721 50 callgsubr
        </CharString>
        <CharString name="ubreve">
          -64 callsubr
          109 51 hstemhm
          77 83 5 51 158 51 -2 82 hintmask 10111001
          505 486 rmoveto
          -82 -105 callsubr
          hintmask 01110101
          -6 callgsubr
          -210 575 rmoveto
          hintmask 10110110
          -30 callgsubr
          hintmask 01110101
          160 callsubr
        </CharString>
        <CharString name="ucircumflex">
          -64 callsubr
          107 148 -49 49 56 callsubr
          hintmask 10110110
          505 486 rmoveto
          -82 -105 callsubr
          hintmask 01110110
          -6 callgsubr
          -343 573 47 callsubr
        </CharString>
        <CharString name="udieresis">
          -64 callsubr
          122 110 hstemhm
          77 83 -15 107 85 108 -22 82 hintmask 10111001
          505 486 rmoveto
          -82 -105 callsubr
          hintmask 01110101
          -6 callgsubr
          -307 588 rmoveto
          76 callsubr
          -22 -24 -31 -31 22 -24 31 hvcurveto
          hintmask 10111010
          193 hmoveto
          -47 callsubr
          endchar
        </CharString>
        <CharString name="ugrave">
          -64 callsubr
          107 148 56 callsubr
          hintmask 10111100
          505 486 rmoveto
          -82 -105 callsubr
          hintmask 01111100
          -6 callgsubr
          -208 573 103 callsubr
        </CharString>
        <CharString name="uhorn">
          -12 124 callsubr
          263 82 25 68 hintmask 10111100
          516 594 -17 callsubr
          hintmask 10111000
          -24 -105 callsubr
          hintmask 01111000
          7 -85 rlineto
          67 454 hlineto
          hintmask 10111100
          -21 callgsubr
        </CharString>
        <CharString name="uhungarumlaut">
          -64 callsubr
          105 143 56 callsubr
          hintmask 10111100
          505 486 rmoveto
          -82 -105 callsubr
          hintmask 01111100
          -6 callgsubr
          -308 571 rmoveto
          54 hlineto
          88 143 rlineto
          -72 hlineto
          77 -143 rmoveto
          54 hlineto
          88 143 rlineto
          -72 hlineto
          endchar
        </CharString>
        <CharString name="umacron">
          -64 callsubr
          135 57 hstemhm
          77 83 12 245 6 82 hintmask 10111010
          505 486 rmoveto
          -82 -105 callsubr
          hintmask 01111010
          -6 callgsubr
          hintmask 10111100
          -333 601 19 callgsubr
          endchar
        </CharString>
        <CharString name="underscore">
          -140 71 hstem
          60 480 vstem
          60 -69 rmoveto
          -71 480 71 vlineto
          endchar
        </CharString>
        <CharString name="uni00470303">
          65 callsubr
          43 164 callsubr
          53 87 47 45 198 46 -20 77 hintmask 1110110010000000
          -102 callsubr
          hintmask 1111011100000000
          338 383 rmoveto
          27 callgsubr
          -33 -5 -15 -19 -20 -37 -29 52 -53 hhcurveto
          hintmask 1110111010000000
          -48 -31 -46 -62 -5 hvcurveto
          45 hlineto
          34 6 15 18 20 hhcurveto
          hintmask 1111011100000000
          37 29 -52 52 hhcurveto
          endchar
        </CharString>
        <CharString name="uni00670303">
          -67 callsubr
          81 55 0 54 30 callsubr
          -5 47 189 47 -46 76 6 81 hintmask 1011100110000100
          -20 callsubr
          hintmask 1101100101000010
          -73 callgsubr
          hintmask 1011100110000100
          -55 callsubr
          hintmask 1101100100100010
          -91 callgsubr
          hintmask 1101100101000100
          -66 callgsubr
          hintmask 1101010101000100
          -73 callsubr
          hintmask 1011100100100100
          -55 callgsubr
          hintmask 1011100110000100
          57 callgsubr
          hintmask 1101010101000100
          -83 callsubr
          hintmask 1101100100011000
          -125 370 39 callgsubr
          48 hhcurveto
          hintmask 1101101000011000
          54 10 callsubr
          -49 hhcurveto
          hintmask 1101100100011000
          -53 97 callsubr
        </CharString>
        <CharString name="uni00670303.a">
          -42 callsubr
          113 165 callsubr
          60 84 22 47 189 47 -24 82 hintmask 1110011001000000
          -85 callsubr
          hintmask 1101011001000000
          505 -66 vlineto
          hintmask 1110011001000000
          -103 callsubr
          hintmask 1110011110000000
          -122 506 39 callgsubr
          48 hhcurveto
          hintmask 1110101110000000
          54 10 callsubr
          -49 hhcurveto
          hintmask 1110011110000000
          -53 97 callsubr
        </CharString>
        <CharString name="uni00A0">
          endchar
        </CharString>
        <CharString name="uni00AD">
          13 callgsubr
        </CharString>
        <CharString name="uni00AD.a">
          71 callsubr
        </CharString>
        <CharString name="uni00B5">
          -12 68 -66 69 98 callgsubr
          78 hintmask 01110000
          77 -187 rmoveto
          83 hlineto
          -5 80 -1 49 101 vvcurveto
          -43 26 41 -10 47 hhcurveto
          62 56 35 74 42 hvcurveto
          3 hlineto
          hintmask 10110000
          -77 7 21 -34 51 hhcurveto
          21 15 3 5 12 hvcurveto
          -12 62 rlineto
          -2 -9 -4 0 -5 hhcurveto
          -15 -12 10 26 116 2 147 3 131 hvcurveto
          -83 -316 hlineto
          hintmask 01110000
          -93 -54 -49 -18 -51 hhcurveto
          -76 -33 47 89 hvcurveto
          291 -83 vlineto
          endchar
        </CharString>
        <CharString name="uni0122">
          -216 40 164 66 callgsubr
          hstem
          53 87 199 64 53 77 vstem
          -102 callsubr
          253 -376 24 callsubr
        </CharString>
</ttFont>
